<svg xmlns="http://www.w3.org/2000/svg" xmlns:xlink="http://www.w3.org/1999/xlink" version="1.1" data-diagram-type="ACTIVITY" style="width:618px;height:1555px;background:#FFFFFF;" width="618px" height="1555px" viewBox="0 0 618 1555" zoomAndPan="magnify" preserveAspectRatio="none" contentStyleType="text/css"><?plantuml 1.2026.7beta8?><defs/><g font-family="sans-serif" lengthAdjust="spacing"><rect x="20" y="17.745" width="571.49" height="20.953" fill="none" style="stroke:none;"/><ellipse cx="125.188" cy="53.698" rx="10" ry="10" fill="#222" style="stroke:#222;stroke-width:1;"/><rect x="26" y="83.698" width="198.377" height="33.969" fill="#DBEAFE" style="stroke:#2563EB;stroke-width:0.5;" rx="12.5" ry="12.5"/><text x="36" y="104.837" fill="#0F172A" font-size="12" textLength="178.377">Klik 'Daftar' pada mata kuliah</text><rect x="98.896" y="186.069" width="52.584" height="33.969" fill="#DBEAFE" style="stroke:#2563EB;stroke-width:0.5;" rx="12.5" ry="12.5"/><text x="108.896" y="207.208" fill="#0F172A" font-size="12" textLength="32.584">Login</text><polygon points="98.185,743.167,152.192,743.167,164.192,755.167,152.192,767.167,98.185,767.167,86.185,755.167,98.185,743.167" fill="#FEF3C7" style="stroke:#D97706;stroke-width:0.5;stroke-linejoin:miter;stroke-miterlimit:10;"/><text x="129.188" y="777.377" fill="#0F172A" font-size="11" textLength="93.06">Drop MK bentrok</text><text x="98.185" y="758.975" fill="#0F172A" font-size="11" textLength="54.006">Pilih aksi?</text><text x="164.192" y="752.573" fill="#0F172A" font-size="11" textLength="28.397">Batal</text><ellipse cx="214.589" cy="755.167" rx="11" ry="11" fill="none" style="stroke:#222;stroke-width:1;"/><ellipse cx="214.589" cy="755.167" rx="6" ry="6" fill="#222" style="stroke:#222;stroke-width:1;"/><polygon points="57.413,957.476,192.964,957.476,204.964,969.476,192.964,981.476,57.413,981.476,45.413,969.476,57.413,957.476" fill="#FEF3C7" style="stroke:#D97706;stroke-width:0.5;stroke-linejoin:miter;stroke-miterlimit:10;"/><text x="57.413" y="973.284" fill="#0F172A" font-size="11" textLength="135.55">Konfirmasi pendaftaran?</text><text x="204.964" y="966.881" fill="#0F172A" font-size="11" textLength="28.397">Batal</text><ellipse cx="255.361" cy="969.476" rx="11" ry="11" fill="none" style="stroke:#222;stroke-width:1;"/><ellipse cx="255.361" cy="969.476" rx="6" ry="6" fill="#222" style="stroke:#222;stroke-width:1;"/><polygon points="96.536,1165.124,153.841,1165.124,165.841,1177.124,153.841,1189.124,96.536,1189.124,84.536,1177.124,96.536,1165.124" fill="#FEF3C7" style="stroke:#D97706;stroke-width:0.5;stroke-linejoin:miter;stroke-miterlimit:10;"/><text x="129.188" y="1199.334" fill="#0F172A" font-size="11" textLength="51.466">Coba lagi</text><text x="96.536" y="1180.932" fill="#0F172A" font-size="11" textLength="57.304">Coba lagi?</text><text x="165.841" y="1174.529" fill="#0F172A" font-size="11" textLength="28.397">Batal</text><ellipse cx="216.238" cy="1177.124" rx="11" ry="11" fill="none" style="stroke:#222;stroke-width:1;"/><ellipse cx="216.238" cy="1177.124" rx="6" ry="6" fill="#222" style="stroke:#222;stroke-width:1;"/><line x1="20" y1="17.745" x2="20" y2="1534.678" style="stroke:#94A3B8;stroke-width:1.5;"/><polygon points="379.609,137.667,457.506,137.667,469.506,149.667,457.506,161.667,379.609,161.667,367.609,149.667,379.609,137.667" fill="#FEF3C7" style="stroke:#D97706;stroke-width:0.5;stroke-linejoin:miter;stroke-miterlimit:10;"/><text x="422.558" y="171.877" fill="#0F172A" font-size="11" textLength="38.452">[Tidak]</text><text x="379.609" y="153.475" fill="#0F172A" font-size="11" textLength="77.897">Terotentikasi?</text><polygon points="418.558,240.038,430.558,252.038,418.558,264.038,406.558,252.038,418.558,240.038" fill="#FEF3C7" style="stroke:#D97706;stroke-width:0.5;stroke-linejoin:miter;stroke-miterlimit:10;"/><rect x="309.86" y="332.44" width="217.396" height="33.969" fill="#DBEAFE" style="stroke:#2563EB;stroke-width:0.5;" rx="12.5" ry="12.5"/><text x="319.86" y="353.579" fill="#0F172A" font-size="12" textLength="197.396">Tampilkan: 'Pendaftaran ditutup'</text><ellipse cx="418.558" cy="405.925" rx="11" ry="11" fill="none" style="stroke:#222;stroke-width:1;"/><ellipse cx="418.558" cy="405.925" rx="6" ry="6" fill="#222" style="stroke:#222;stroke-width:1;"/><polygon points="336.275,284.038,500.84,284.038,512.84,296.038,500.84,308.038,336.275,308.038,324.275,296.038,336.275,284.038" fill="#FEF3C7" style="stroke:#D97706;stroke-width:0.5;stroke-linejoin:miter;stroke-miterlimit:10;"/><text x="422.558" y="318.249" fill="#0F172A" font-size="11" textLength="38.452">[Tidak]</text><text x="336.275" y="299.846" fill="#0F172A" font-size="11" textLength="164.565">Periode pendaftaran terbuka?</text><rect x="335.925" y="507.327" width="165.266" height="47.938" fill="#DBEAFE" style="stroke:#2563EB;stroke-width:0.5;" rx="12.5" ry="12.5"/><text x="345.925" y="528.466" fill="#0F172A" font-size="12" textLength="136.875">Tampilkan: 'MK penuh'</text><text x="345.925" y="542.435" fill="#0F172A" font-size="12" textLength="145.266">Tawarkan daftar tunggu</text><ellipse cx="418.558" cy="587.796" rx="11" ry="11" fill="none" style="stroke:#222;stroke-width:1;"/><ellipse cx="418.558" cy="587.796" rx="6" ry="6" fill="#222" style="stroke:#222;stroke-width:1;"/><polygon points="375.466,458.925,461.65,458.925,473.65,470.925,461.65,482.925,375.466,482.925,363.466,470.925,375.466,458.925" fill="#FEF3C7" style="stroke:#D97706;stroke-width:0.5;stroke-linejoin:miter;stroke-miterlimit:10;"/><text x="422.558" y="493.135" fill="#0F172A" font-size="11" textLength="38.452">[Tidak]</text><text x="375.466" y="474.733" fill="#0F172A" font-size="11" textLength="86.185">Kuota tersedia?</text><rect x="336.728" y="689.198" width="163.66" height="33.969" fill="#DBEAFE" style="stroke:#2563EB;stroke-width:0.5;" rx="12.5" ry="12.5"/><text x="346.728" y="710.337" fill="#0F172A" font-size="12" textLength="143.66">Tampilkan detail konflik</text><rect x="331.361" y="791.569" width="174.395" height="33.969" fill="#DBEAFE" style="stroke:#2563EB;stroke-width:0.5;" rx="12.5" ry="12.5"/><text x="341.361" y="812.708" fill="#0F172A" font-size="12" textLength="154.395">Drop mata kuliah bentrok</text><polygon points="365.518,640.796,471.597,640.796,483.597,652.796,471.597,664.796,365.518,664.796,353.518,652.796,365.518,640.796" fill="#FEF3C7" style="stroke:#D97706;stroke-width:0.5;stroke-linejoin:miter;stroke-miterlimit:10;"/><text x="422.558" y="675.006" fill="#0F172A" font-size="11" textLength="22.043">[Ya]</text><text x="365.518" y="656.604" fill="#0F172A" font-size="11" textLength="106.079">Ada konflik jadwal?</text><polygon points="418.558,845.538,430.558,857.538,418.558,869.538,406.558,857.538,418.558,845.538" fill="#FEF3C7" style="stroke:#D97706;stroke-width:0.5;stroke-linejoin:miter;stroke-miterlimit:10;"/><rect x="307.082" y="889.538" width="222.951" height="47.938" fill="#DBEAFE" style="stroke:#2563EB;stroke-width:0.5;" rx="12.5" ry="12.5"/><text x="317.082" y="910.677" fill="#0F172A" font-size="12" textLength="202.951">Tampilkan ringkasan pendaftaran</text><text x="317.082" y="924.646" fill="#0F172A" font-size="12" textLength="145.143">(MK, SKS, jadwal, biaya)</text><rect x="280.487" y="1001.476" width="276.143" height="33.969" fill="#DBEAFE" style="stroke:#2563EB;stroke-width:0.5;" rx="12.5" ry="12.5"/><text x="290.487" y="1022.614" fill="#0F172A" font-size="12" textLength="256.143">Inisiasi pembayaran via Payment Gateway</text><rect x="313.689" y="1111.155" width="209.738" height="33.969" fill="#DBEAFE" style="stroke:#2563EB;stroke-width:0.5;" rx="12.5" ry="12.5"/><text x="323.689" y="1132.293" fill="#0F172A" font-size="12" textLength="189.738">Tampilkan: 'Pembayaran gagal'</text><rect x="301.361" y="1220.834" width="234.395" height="33.969" fill="#DBEAFE" style="stroke:#2563EB;stroke-width:0.5;" rx="12.5" ry="12.5"/><text x="311.361" y="1241.973" fill="#0F172A" font-size="12" textLength="214.395">Coba lagi pembayaran via Gateway</text><polygon points="357.314,1055.444,479.802,1055.444,491.802,1067.444,479.802,1079.444,357.314,1079.444,345.314,1067.444,357.314,1055.444" fill="#FEF3C7" style="stroke:#D97706;stroke-width:0.5;stroke-linejoin:miter;stroke-miterlimit:10;"/><text x="422.558" y="1089.655" fill="#0F172A" font-size="11" textLength="29.869">Tidak</text><text x="357.314" y="1071.252" fill="#0F172A" font-size="11" textLength="122.488">Pembayaran berhasil?</text><text x="331.854" y="1064.85" fill="#0F172A" font-size="11" textLength="13.46">Ya</text><rect x="299.761" y="1296.803" width="237.594" height="33.969" fill="#DBEAFE" style="stroke:#2563EB;stroke-width:0.5;" rx="12.5" ry="12.5"/><text x="309.761" y="1317.941" fill="#0F172A" font-size="12" textLength="217.594">Buat catatan Enrolment di database</text><rect x="329.058" y="1350.771" width="179" height="33.969" fill="#DBEAFE" style="stroke:#2563EB;stroke-width:0.5;" rx="12.5" ry="12.5"/><text x="339.058" y="1371.91" fill="#0F172A" font-size="12" textLength="159">Kurangi kuota mata kuliah</text><rect x="330.438" y="1404.74" width="176.24" height="33.969" fill="#DBEAFE" style="stroke:#2563EB;stroke-width:0.5;" rx="12.5" ry="12.5"/><text x="340.438" y="1425.879" fill="#0F172A" font-size="12" textLength="156.24">Kirim notifikasi konfirmasi</text><rect x="333.148" y="1458.709" width="170.82" height="33.969" fill="#DBEAFE" style="stroke:#2563EB;stroke-width:0.5;" rx="12.5" ry="12.5"/><text x="343.148" y="1479.848" fill="#0F172A" font-size="12" textLength="150.82">Arahkan ke 'Jadwal Saya'</text><ellipse cx="418.558" cy="1523.678" rx="11" ry="11" fill="none" style="stroke:#222;stroke-width:1;"/><ellipse cx="418.558" cy="1523.678" rx="6" ry="6" fill="#222" style="stroke:#222;stroke-width:1;"/><line x1="270.361" y1="17.745" x2="270.361" y2="1534.678" style="stroke:#94A3B8;stroke-width:1.5;"/><line x1="589.629" y1="17.745" x2="589.629" y2="1534.678" style="stroke:#94A3B8;stroke-width:1.5;"/><line x1="125.188" y1="63.698" x2="125.188" y2="83.698" style="stroke:#475569;stroke-width:1;"/><polygon points="121.188,73.698,125.188,83.698,129.188,73.698,125.188,77.698" fill="#475569" style="stroke:#475569;stroke-width:1;stroke-linejoin:miter;stroke-miterlimit:10;"/><line x1="164.192" y1="755.167" x2="203.589" y2="755.167" style="stroke:#475569;stroke-width:1;"/><polygon points="193.589,751.167,203.589,755.167,193.589,759.167,197.589,755.167" fill="#475569" style="stroke:#475569;stroke-width:1;stroke-linejoin:miter;stroke-miterlimit:10;"/><line x1="125.188" y1="981.476" x2="125.188" y2="986.476" style="stroke:#475569;stroke-width:1;"/><line x1="125.188" y1="986.476" x2="418.558" y2="986.476" style="stroke:#475569;stroke-width:1;"/><line x1="418.558" y1="986.476" x2="418.558" y2="1001.476" style="stroke:#475569;stroke-width:1;"/><polygon points="414.558,991.476,418.558,1001.476,422.558,991.476,418.558,995.476" fill="#475569" style="stroke:#475569;stroke-width:1;stroke-linejoin:miter;stroke-miterlimit:10;"/><line x1="204.964" y1="969.476" x2="244.361" y2="969.476" style="stroke:#475569;stroke-width:1;"/><polygon points="234.361,965.476,244.361,969.476,234.361,973.476,238.361,969.476" fill="#475569" style="stroke:#475569;stroke-width:1;stroke-linejoin:miter;stroke-miterlimit:10;"/><line x1="125.188" y1="1189.124" x2="125.188" y2="1205.834" style="stroke:#475569;stroke-width:1;"/><line x1="125.188" y1="1205.834" x2="418.558" y2="1205.834" style="stroke:#475569;stroke-width:1;"/><line x1="418.558" y1="1205.834" x2="418.558" y2="1220.834" style="stroke:#475569;stroke-width:1;"/><polygon points="414.558,1210.834,418.558,1220.834,422.558,1210.834,418.558,1214.834" fill="#475569" style="stroke:#475569;stroke-width:1;stroke-linejoin:miter;stroke-miterlimit:10;"/><line x1="165.841" y1="1177.124" x2="205.238" y2="1177.124" style="stroke:#475569;stroke-width:1;"/><polygon points="195.238,1173.124,205.238,1177.124,195.238,1181.124,199.238,1177.124" fill="#475569" style="stroke:#475569;stroke-width:1;stroke-linejoin:miter;stroke-miterlimit:10;"/><line x1="469.506" y1="149.667" x2="481.506" y2="149.667" style="stroke:#475569;stroke-width:1;"/><polygon points="477.506,193.054,481.506,203.054,485.506,193.054,481.506,197.054" fill="#475569" style="stroke:#475569;stroke-width:1;stroke-linejoin:miter;stroke-miterlimit:10;"/><line x1="481.506" y1="149.667" x2="481.506" y2="252.038" style="stroke:#475569;stroke-width:1;"/><line x1="481.506" y1="252.038" x2="430.558" y2="252.038" style="stroke:#475569;stroke-width:1;"/><polygon points="440.558,248.038,430.558,252.038,440.558,256.038,436.558,252.038" fill="#475569" style="stroke:#475569;stroke-width:1;stroke-linejoin:miter;stroke-miterlimit:10;"/><line x1="418.558" y1="366.409" x2="418.558" y2="394.925" style="stroke:#475569;stroke-width:1;"/><polygon points="414.558,384.925,418.558,394.925,422.558,384.925,418.558,388.925" fill="#475569" style="stroke:#475569;stroke-width:1;stroke-linejoin:miter;stroke-miterlimit:10;"/><line x1="418.558" y1="308.038" x2="418.558" y2="332.44" style="stroke:#475569;stroke-width:1;"/><polygon points="414.558,322.44,418.558,332.44,422.558,322.44,418.558,326.44" fill="#475569" style="stroke:#475569;stroke-width:1;stroke-linejoin:miter;stroke-miterlimit:10;"/><line x1="512.84" y1="296.038" x2="537.256" y2="296.038" style="stroke:#475569;stroke-width:1;"/><polygon points="533.256,364.925,537.256,374.925,541.256,364.925,537.256,368.925" fill="#475569" style="stroke:#475569;stroke-width:1;stroke-linejoin:miter;stroke-miterlimit:10;"/><line x1="537.256" y1="296.038" x2="537.256" y2="438.925" style="stroke:#475569;stroke-width:1;"/><line x1="537.256" y1="438.925" x2="418.558" y2="438.925" style="stroke:#475569;stroke-width:1;"/><line x1="418.558" y1="438.925" x2="418.558" y2="458.925" style="stroke:#475569;stroke-width:1;"/><polygon points="414.558,448.925,418.558,458.925,422.558,448.925,418.558,452.925" fill="#475569" style="stroke:#475569;stroke-width:1;stroke-linejoin:miter;stroke-miterlimit:10;"/><line x1="418.558" y1="264.038" x2="418.558" y2="284.038" style="stroke:#475569;stroke-width:1;"/><polygon points="414.558,274.038,418.558,284.038,422.558,274.038,418.558,278.038" fill="#475569" style="stroke:#475569;stroke-width:1;stroke-linejoin:miter;stroke-miterlimit:10;"/><line x1="418.558" y1="555.265" x2="418.558" y2="576.796" style="stroke:#475569;stroke-width:1;"/><polygon points="414.558,566.796,418.558,576.796,422.558,566.796,418.558,570.796" fill="#475569" style="stroke:#475569;stroke-width:1;stroke-linejoin:miter;stroke-miterlimit:10;"/><line x1="418.558" y1="482.925" x2="418.558" y2="507.327" style="stroke:#475569;stroke-width:1;"/><polygon points="414.558,497.327,418.558,507.327,422.558,497.327,418.558,501.327" fill="#475569" style="stroke:#475569;stroke-width:1;stroke-linejoin:miter;stroke-miterlimit:10;"/><line x1="473.65" y1="470.925" x2="511.191" y2="470.925" style="stroke:#475569;stroke-width:1;"/><polygon points="507.191,546.796,511.191,556.796,515.191,546.796,511.191,550.796" fill="#475569" style="stroke:#475569;stroke-width:1;stroke-linejoin:miter;stroke-miterlimit:10;"/><line x1="511.191" y1="470.925" x2="511.191" y2="620.796" style="stroke:#475569;stroke-width:1;"/><line x1="511.191" y1="620.796" x2="418.558" y2="620.796" style="stroke:#475569;stroke-width:1;"/><line x1="418.558" y1="620.796" x2="418.558" y2="640.796" style="stroke:#475569;stroke-width:1;"/><polygon points="414.558,630.796,418.558,640.796,422.558,630.796,418.558,634.796" fill="#475569" style="stroke:#475569;stroke-width:1;stroke-linejoin:miter;stroke-miterlimit:10;"/><line x1="418.558" y1="825.538" x2="418.558" y2="845.538" style="stroke:#475569;stroke-width:1;"/><polygon points="414.558,835.538,418.558,845.538,422.558,835.538,418.558,839.538" fill="#475569" style="stroke:#475569;stroke-width:1;stroke-linejoin:miter;stroke-miterlimit:10;"/><line x1="418.558" y1="664.796" x2="418.558" y2="689.198" style="stroke:#475569;stroke-width:1;"/><polygon points="414.558,679.198,418.558,689.198,422.558,679.198,418.558,683.198" fill="#475569" style="stroke:#475569;stroke-width:1;stroke-linejoin:miter;stroke-miterlimit:10;"/><line x1="483.597" y1="652.796" x2="570.629" y2="652.796" style="stroke:#475569;stroke-width:1;"/><polygon points="566.629,752.069,570.629,762.069,574.629,752.069,570.629,756.069" fill="#475569" style="stroke:#475569;stroke-width:1;stroke-linejoin:miter;stroke-miterlimit:10;"/><line x1="570.629" y1="652.796" x2="570.629" y2="857.538" style="stroke:#475569;stroke-width:1;"/><line x1="570.629" y1="857.538" x2="430.558" y2="857.538" style="stroke:#475569;stroke-width:1;"/><polygon points="440.558,853.538,430.558,857.538,440.558,861.538,436.558,857.538" fill="#475569" style="stroke:#475569;stroke-width:1;stroke-linejoin:miter;stroke-miterlimit:10;"/><line x1="418.558" y1="869.538" x2="418.558" y2="889.538" style="stroke:#475569;stroke-width:1;"/><polygon points="414.558,879.538,418.558,889.538,422.558,879.538,418.558,883.538" fill="#475569" style="stroke:#475569;stroke-width:1;stroke-linejoin:miter;stroke-miterlimit:10;"/><line x1="418.558" y1="1079.444" x2="418.558" y2="1111.155" style="stroke:#475569;stroke-width:1;"/><polygon points="414.558,1101.155,418.558,1111.155,422.558,1101.155,418.558,1105.155" fill="#475569" style="stroke:#475569;stroke-width:1;stroke-linejoin:miter;stroke-miterlimit:10;"/><line x1="418.558" y1="1254.803" x2="418.558" y2="1264.803" style="stroke:#475569;stroke-width:1;"/><line x1="418.558" y1="1264.803" x2="547.755" y2="1264.803" style="stroke:#475569;stroke-width:1;"/><polygon points="543.755,1193.124,547.755,1183.124,551.755,1193.124,547.755,1189.124" fill="#475569" style="stroke:#475569;stroke-width:1;stroke-linejoin:miter;stroke-miterlimit:10;"/><line x1="547.755" y1="1067.444" x2="547.755" y2="1264.803" style="stroke:#475569;stroke-width:1;"/><line x1="547.755" y1="1067.444" x2="491.802" y2="1067.444" style="stroke:#475569;stroke-width:1;"/><polygon points="501.802,1063.444,491.802,1067.444,501.802,1071.444,497.802,1067.444" fill="#475569" style="stroke:#475569;stroke-width:1;stroke-linejoin:miter;stroke-miterlimit:10;"/><line x1="345.314" y1="1067.444" x2="289.361" y2="1067.444" style="stroke:#475569;stroke-width:1;"/><polygon points="285.361,1179.124,289.361,1189.124,293.361,1179.124,289.361,1183.124" fill="#475569" style="stroke:#475569;stroke-width:1;stroke-linejoin:miter;stroke-miterlimit:10;"/><line x1="289.361" y1="1067.444" x2="289.361" y2="1276.803" style="stroke:#475569;stroke-width:1;"/><line x1="289.361" y1="1276.803" x2="418.558" y2="1276.803" style="stroke:#475569;stroke-width:1;"/><line x1="418.558" y1="1276.803" x2="418.558" y2="1296.803" style="stroke:#475569;stroke-width:1;"/><polygon points="414.558,1286.803,418.558,1296.803,422.558,1286.803,418.558,1290.803" fill="#475569" style="stroke:#475569;stroke-width:1;stroke-linejoin:miter;stroke-miterlimit:10;"/><line x1="418.558" y1="1035.444" x2="418.558" y2="1055.444" style="stroke:#475569;stroke-width:1;"/><polygon points="414.558,1045.444,418.558,1055.444,422.558,1045.444,418.558,1049.444" fill="#475569" style="stroke:#475569;stroke-width:1;stroke-linejoin:miter;stroke-miterlimit:10;"/><line x1="418.558" y1="1330.771" x2="418.558" y2="1350.771" style="stroke:#475569;stroke-width:1;"/><polygon points="414.558,1340.771,418.558,1350.771,422.558,1340.771,418.558,1344.771" fill="#475569" style="stroke:#475569;stroke-width:1;stroke-linejoin:miter;stroke-miterlimit:10;"/><line x1="418.558" y1="1384.74" x2="418.558" y2="1404.74" style="stroke:#475569;stroke-width:1;"/><polygon points="414.558,1394.74,418.558,1404.74,422.558,1394.74,418.558,1398.74" fill="#475569" style="stroke:#475569;stroke-width:1;stroke-linejoin:miter;stroke-miterlimit:10;"/><line x1="418.558" y1="1438.709" x2="418.558" y2="1458.709" style="stroke:#475569;stroke-width:1;"/><polygon points="414.558,1448.709,418.558,1458.709,422.558,1448.709,418.558,1452.709" fill="#475569" style="stroke:#475569;stroke-width:1;stroke-linejoin:miter;stroke-miterlimit:10;"/><line x1="418.558" y1="1492.678" x2="418.558" y2="1512.678" style="stroke:#475569;stroke-width:1;"/><polygon points="414.558,1502.678,418.558,1512.678,422.558,1502.678,418.558,1506.678" fill="#475569" style="stroke:#475569;stroke-width:1;stroke-linejoin:miter;stroke-miterlimit:10;"/><line x1="418.558" y1="161.667" x2="418.558" y2="173.868" style="stroke:#475569;stroke-width:1;"/><line x1="418.558" y1="173.868" x2="125.188" y2="173.868" style="stroke:#475569;stroke-width:1;"/><line x1="125.188" y1="173.868" x2="125.188" y2="186.069" style="stroke:#475569;stroke-width:1;"/><polygon points="121.188,176.069,125.188,186.069,129.188,176.069,125.188,180.069" fill="#475569" style="stroke:#475569;stroke-width:1;stroke-linejoin:miter;stroke-miterlimit:10;"/><line x1="125.188" y1="220.038" x2="125.188" y2="227.837" style="stroke:#475569;stroke-width:1;"/><line x1="125.188" y1="227.837" x2="418.558" y2="227.837" style="stroke:#475569;stroke-width:1;"/><line x1="418.558" y1="227.837" x2="418.558" y2="240.038" style="stroke:#475569;stroke-width:1;"/><polygon points="414.558,230.038,418.558,240.038,422.558,230.038,418.558,234.038" fill="#475569" style="stroke:#475569;stroke-width:1;stroke-linejoin:miter;stroke-miterlimit:10;"/><line x1="125.188" y1="117.667" x2="125.188" y2="122.667" style="stroke:#475569;stroke-width:1;"/><line x1="125.188" y1="122.667" x2="418.558" y2="122.667" style="stroke:#475569;stroke-width:1;"/><line x1="418.558" y1="122.667" x2="418.558" y2="137.667" style="stroke:#475569;stroke-width:1;"/><polygon points="414.558,127.667,418.558,137.667,422.558,127.667,418.558,131.667" fill="#475569" style="stroke:#475569;stroke-width:1;stroke-linejoin:miter;stroke-miterlimit:10;"/><line x1="125.188" y1="767.167" x2="125.188" y2="779.368" style="stroke:#475569;stroke-width:1;"/><line x1="125.188" y1="779.368" x2="418.558" y2="779.368" style="stroke:#475569;stroke-width:1;"/><line x1="418.558" y1="779.368" x2="418.558" y2="791.569" style="stroke:#475569;stroke-width:1;"/><polygon points="414.558,781.569,418.558,791.569,422.558,781.569,418.558,785.569" fill="#475569" style="stroke:#475569;stroke-width:1;stroke-linejoin:miter;stroke-miterlimit:10;"/><line x1="418.558" y1="723.167" x2="418.558" y2="728.167" style="stroke:#475569;stroke-width:1;"/><line x1="418.558" y1="728.167" x2="125.188" y2="728.167" style="stroke:#475569;stroke-width:1;"/><line x1="125.188" y1="728.167" x2="125.188" y2="743.167" style="stroke:#475569;stroke-width:1;"/><polygon points="121.188,733.167,125.188,743.167,129.188,733.167,125.188,737.167" fill="#475569" style="stroke:#475569;stroke-width:1;stroke-linejoin:miter;stroke-miterlimit:10;"/><line x1="418.558" y1="937.476" x2="418.558" y2="942.476" style="stroke:#475569;stroke-width:1;"/><line x1="418.558" y1="942.476" x2="125.188" y2="942.476" style="stroke:#475569;stroke-width:1;"/><line x1="125.188" y1="942.476" x2="125.188" y2="957.476" style="stroke:#475569;stroke-width:1;"/><polygon points="121.188,947.476,125.188,957.476,129.188,947.476,125.188,951.476" fill="#475569" style="stroke:#475569;stroke-width:1;stroke-linejoin:miter;stroke-miterlimit:10;"/><line x1="418.558" y1="1145.124" x2="418.558" y2="1150.124" style="stroke:#475569;stroke-width:1;"/><line x1="418.558" y1="1150.124" x2="125.188" y2="1150.124" style="stroke:#475569;stroke-width:1;"/><line x1="125.188" y1="1150.124" x2="125.188" y2="1165.124" style="stroke:#475569;stroke-width:1;"/><polygon points="121.188,1155.124,125.188,1165.124,129.188,1155.124,125.188,1159.124" fill="#475569" style="stroke:#475569;stroke-width:1;stroke-linejoin:miter;stroke-miterlimit:10;"/><text x="95.926" y="34.453" fill="#0F172A" font-size="18" textLength="98.508">Mahasiswa</text><text x="399.26" y="34.453" fill="#0F172A" font-size="18" textLength="61.471">Sistem</text><?plantuml-src XLFBRjim4BphAnReGJQGGvgN6_bGvD4KhMiWW7q9cXvM9YLjIP46HKKmclnxbxAYABQ1-6IHipCxEyjAaLcZmn9INAdSsTg86wkjWqztxI-gUaJLKAdHIFWN0LnR9wJhe9TdU9f-uTCbUItlhF7TnN7sUNA2qSk01LUUdiXljYoxeYALcCbT_fFpYrEPyka-DS0jOMcDsAFAP7QwcWm0GqPnEPaSNxnTVj2pSxPf6-umPvFpyulBWmszHD7p70kig6hmEQeyEXybCqqAublC-3E6DGg44Zs2gZLXCUMQ1LLUbiyHPJ1QIcUzD9uKqtmTWo-aWT7l9GbKVyOiErG0I7xPdCmqdB-oI2CeYrgoU-d82WbhFclrqO2NBgqL7g9EbbYkIIiq2SJtWnf1llRrEWuwbRVheSQijco6MIifw6FQ-InqKnVnerbYWqu5-bO7V6tol3waSSKpKzPaOP9_KJIettGUS4S4XFH8-hLWkZUpTZAagG1KWnbVSoWwK7Nw059N4aQtpgw1squv5MVL5j5FEtmaBMGGwYisQ6zjT6Rwia6xZapEOVE_GKoFPZIV7S5YjZZg71z1IhZ1yVJzahKHi5Do9HyDAVQD3SVwriaFGnLjQykK5KBWJuHmZvkIRS1tzBB1pJHg2j8oB5KFIwKBZOGqgEBT3P4VMAGUdsEEEZwSo8rD4JJc7mVI8yVzUDy5alI0NKkz5Qxgt3pWE8gIwnezh5ZFC_ARSLQtrWNnRdfCiP9JViWryp2fQZV-tHjEPkIe16CzPUtBRRTlcmdVNZaiGjHAGlopJHCMt1PF8XZx3m00?></g></svg>