<svg xmlns="http://www.w3.org/2000/svg" xmlns:xlink="http://www.w3.org/1999/xlink" version="1.1" data-diagram-type="DESCRIPTION" style="width:239px;height:207px;background:#FFFFFF;" width="239px" height="207px" viewBox="0 0 239 207" zoomAndPan="magnify" preserveAspectRatio="none" contentStyleType="text/css"><?plantuml 1.2026.7beta8?><defs/><g font-family="sans-serif" lengthAdjust="spacing"><!--cluster Aplikasi Todo--><g class="cluster" data-qualified-name="Aplikasi Todo" id="ent0002" data-source-line="26"><rect x="103.5" y="7" width="121.86" height="186" fill="#F8FAFC" style="stroke:#94A3B8;stroke-width:1;" rx="2.5" ry="2.5"/><text x="111.417" y="21.995" fill="#0F172A" font-size="14" textLength="106.025" font-weight="700">Aplikasi Todo</text></g><!--entity UC1--><g class="entity" data-qualified-name="Aplikasi Todo.UC1" id="ent0003" data-source-line="27"><ellipse cx="164.432" cy="151.995" rx="31.932" ry="25.075" fill="#DBEAFE" style="stroke:#2563EB;stroke-width:0.5;"/><text x="143.073" y="149.901" fill="#0F172A" font-size="14" textLength="42.718">Kelola</text><text x="147.148" y="166.198" fill="#0F172A" font-size="14" textLength="34.569">Todo</text></g><!--entity UC2--><g class="entity" data-qualified-name="Aplikasi Todo.UC2" id="ent0004" data-source-line="28"><ellipse cx="164.431" cy="67.001" rx="29.901" ry="24.521" fill="#DBEAFE" style="stroke:#2563EB;stroke-width:0.5;"/><text x="146.585" y="63.694" fill="#0F172A" font-size="14" textLength="35.69">Filter</text><text x="147.146" y="79.991" fill="#0F172A" font-size="14" textLength="34.569">Todo</text></g><!--entity User--><g class="entity" data-qualified-name="User" id="ent0001" data-source-line="24"><ellipse cx="33" cy="87.85" rx="16" ry="16" fill="#F1F5F9" style="stroke:#475569;stroke-width:0.5;"/><path d="M33,107.85 C37,107.85 40,107.85 44,103.85 C52,103.85 60,111.85 60,119.85 L60,123.85 C60,127.85 56,131.85 52,131.85 L14,131.85 C10,131.85 6,127.85 6,123.85 L6,119.85 C6,111.85 14,103.85 22,103.85 C26,107.85 29,107.85 33,107.85" style="stroke:#475569;stroke-width:0.5;" fill="#F1F5F9"/><text x="17.045" y="145.345" fill="#0F172A" font-size="14" textLength="31.91">User</text></g><!--link User to UC1--><g class="link" data-entity-1="ent0001" data-entity-2="ent0003" id="lnk5" data-source-line="31" data-link-type="association"><path d="M60.82,118.7 C82.29,125.67 112.36,135.43 134.4,142.58" style="stroke:#475569;stroke-width:1;" fill="none" id="User-UC1"/></g><!--link User to UC2--><g class="link" data-entity-1="ent0001" data-entity-2="ent0004" id="lnk6" data-source-line="32" data-link-type="association"><path d="M60.82,101.09 C82.88,93.76 114.03,83.41 136.2,76.05" style="stroke:#475569;stroke-width:1;" fill="none" id="User-UC2"/></g><?plantuml-src ZP11JyCm38Nl-HLMEK-YtRgjHvZKouw36nStTKhKB9wSJ1D2_7T8DxHIWKPEbf_plMSxCX4YWzZkDK9hXNIqx5NehJ-Wu1uQr7qdVFJjXXqBtDN36qsWZYox-EO8y4I1zpGIZu4q1e9t1V0uHRKDeQ6aiBGabsvHBkVKV7Lhzl7IkpVvga3rCRNzdMjoKvfgobsiod9PtUIc4w3lt1-PpTgWqLDsjS1vixwTMOHF0_S_cTHvnUmva6I00LAXr3LWzd1mjiTWuObRpWRmzy6pBJbs-EBFKlgzoSTwRLqa-Q4NoJIPm6msZ5_huXC0?></g></svg>