<svg xmlns="http://www.w3.org/2000/svg" xmlns:xlink="http://www.w3.org/1999/xlink" version="1.1" data-diagram-type="DESCRIPTION" style="width:305px;height:676px;background:#FFFFFF;" width="305px" height="676px" viewBox="0 0 305 676" zoomAndPan="magnify" preserveAspectRatio="none" contentStyleType="text/css"><?plantuml 1.2026.7beta8?><defs/><g font-family="sans-serif" lengthAdjust="spacing"><!--cluster ClientLayer--><g class="cluster" data-qualified-name="ClientLayer" id="ent0001" data-source-line="16"><rect x="94" y="7" width="110" height="87.29" fill="#F8FAFC" style="stroke:#94A3B8;stroke-width:1;" rx="2.5" ry="2.5"/><text x="125.987" y="21.995" fill="#0F172A" font-size="14" textLength="46.026" font-weight="700">Client</text></g><!--cluster PresLayer--><g class="cluster" data-qualified-name="PresLayer" id="ent0003" data-source-line="20"><rect x="7" y="118.29" width="284" height="216.19" fill="#EFF6FF" style="stroke:#94A3B8;stroke-width:1;" rx="2.5" ry="2.5"/><text x="73.781" y="133.285" fill="#0F172A" font-size="14" textLength="150.438" font-weight="700">Presentation Layer</text></g><!--cluster AppLayer--><g class="cluster" data-qualified-name="AppLayer" id="ent0006" data-source-line="25"><rect x="72" y="358.48" width="154" height="87.3" fill="#ECFDF5" style="stroke:#94A3B8;stroke-width:1;" rx="2.5" ry="2.5"/><text x="79.967" y="373.475" fill="#0F172A" font-size="14" textLength="138.065" font-weight="700">Application Layer</text></g><!--cluster DataLayer--><g class="cluster" data-qualified-name="DataLayer" id="ent0008" data-source-line="29"><rect x="45" y="469.78" width="208" height="192.59" fill="#FEF3C7" style="stroke:#94A3B8;stroke-width:1;" rx="2.5" ry="2.5"/><text x="106.012" y="484.775" fill="#0F172A" font-size="14" textLength="85.976" font-weight="700">Data Layer</text></g><!--entity Browser--><g class="entity" data-qualified-name="ClientLayer.Browser" id="ent0002" data-source-line="17"><rect x="110.48" y="42" width="77.039" height="36.297" fill="#F1F5F9" style="stroke:#94A3B8;stroke-width:0.5;" rx="2.5" ry="2.5"/><text x="120.48" y="64.995" fill="#0F172A" font-size="14" textLength="57.039">Browser</text></g><!--entity Route--><g class="entity" data-qualified-name="PresLayer.Route" id="ent0004" data-source-line="21"><rect x="74.3" y="153.29" width="149.391" height="52.594" fill="#DBEAFE" style="stroke:#94A3B8;stroke-width:0.5;" rx="2.5" ry="2.5"/><text x="84.3" y="176.285" fill="#0F172A" font-size="14" textLength="97.221">Laravel Route</text><text x="84.3" y="192.582" fill="#0F172A" font-size="14" textLength="129.391">(middleware auth)</text></g><!--entity Controller--><g class="entity" data-qualified-name="PresLayer.Controller" id="ent0005" data-source-line="22"><rect x="23" y="265.89" width="251.998" height="52.594" fill="#DBEAFE" style="stroke:#94A3B8;stroke-width:0.5;" rx="2.5" ry="2.5"/><text x="33" y="288.885" fill="#0F172A" font-size="14" textLength="103.742">TodoController</text><text x="33" y="305.182" fill="#0F172A" font-size="14" textLength="231.998">(thin, mendelegasikan ke Action)</text></g><!--entity Action--><g class="entity" data-qualified-name="AppLayer.Action" id="ent0007" data-source-line="26"><rect x="95.95" y="393.48" width="106.099" height="36.297" fill="#D1FAE5" style="stroke:#94A3B8;stroke-width:0.5;" rx="2.5" ry="2.5"/><text x="105.95" y="416.475" fill="#0F172A" font-size="14" textLength="86.099">Kelas Action</text></g><!--entity Model--><g class="entity" data-qualified-name="DataLayer.Model" id="ent0009" data-source-line="30"><rect x="60.65" y="504.78" width="176.707" height="36.297" fill="#FDE68A" style="stroke:#94A3B8;stroke-width:0.5;" rx="2.5" ry="2.5"/><text x="70.65" y="527.775" fill="#0F172A" font-size="14" textLength="156.707">Todo Model / Eloquent</text></g><!--entity DB--><g class="entity" data-qualified-name="DataLayer.DB" id="ent0010" data-source-line="31"><path d="M114.96,611.07 C114.96,601.07 148.995,601.07 148.995,601.07 C148.995,601.07 183.03,601.07 183.03,611.07 L183.03,636.367 C183.03,646.367 148.995,646.367 148.995,646.367 C148.995,646.367 114.96,646.367 114.96,636.367 L114.96,611.07" style="stroke:#94A3B8;stroke-width:0.5;" fill="#FDE68A"/><path d="M114.96,611.07 C114.96,621.07 148.995,621.07 148.995,621.07 C148.995,621.07 183.03,621.07 183.03,611.07" style="stroke:#94A3B8;stroke-width:0.5;" fill="none"/><text x="124.96" y="638.065" fill="#0F172A" font-size="14" textLength="48.07">MySQL</text></g><!--link Browser to Route--><g class="link" data-entity-1="ent0002" data-entity-2="ent0004" id="lnk11" data-source-line="34" data-link-type="dependency"><path d="M149,78.73 C149,98.44 149,125.57 149,148.05" style="stroke:#475569;stroke-width:1;" fill="none" id="Browser-to-Route"/><polygon points="149,153.05,153,144.05,149,148.05,145,144.05,149,153.05" fill="#475569" style="stroke:#475569;stroke-width:1;stroke-linejoin:miter;stroke-miterlimit:10;"/></g><!--link Route to Controller--><g class="link" data-entity-1="ent0004" data-entity-2="ent0005" id="lnk12" data-source-line="35" data-link-type="dependency"><path d="M149,206.24 C149,224.11 149,242.84 149,260.67" style="stroke:#475569;stroke-width:1;" fill="none" id="Route-to-Controller"/><polygon points="149,265.67,153,256.67,149,260.67,145,256.67,149,265.67" fill="#475569" style="stroke:#475569;stroke-width:1;stroke-linejoin:miter;stroke-miterlimit:10;"/></g><!--link Controller to Action--><g class="link" data-entity-1="ent0005" data-entity-2="ent0007" id="lnk13" data-source-line="36" data-link-type="dependency"><path d="M149,318.96 C149,341.51 149,368.65 149,388.27" style="stroke:#475569;stroke-width:1;" fill="none" id="Controller-to-Action"/><polygon points="149,393.27,153,384.27,149,388.27,145,384.27,149,393.27" fill="#475569" style="stroke:#475569;stroke-width:1;stroke-linejoin:miter;stroke-miterlimit:10;"/></g><!--link Action to Model--><g class="link" data-entity-1="ent0007" data-entity-2="ent0009" id="lnk14" data-source-line="37" data-link-type="dependency"><path d="M149,430.19 C149,450.58 149,479.03 149,499.41" style="stroke:#475569;stroke-width:1;" fill="none" id="Action-to-Model"/><polygon points="149,504.41,153,495.41,149,499.41,145,495.41,149,504.41" fill="#475569" style="stroke:#475569;stroke-width:1;stroke-linejoin:miter;stroke-miterlimit:10;"/></g><!--link Model to DB--><g class="link" data-entity-1="ent0009" data-entity-2="ent0010" id="lnk15" data-source-line="38" data-link-type="dependency"><path d="M149,541.13 C149,557.72 149,577.88 149,595.87" style="stroke:#475569;stroke-width:1;" fill="none" id="Model-to-DB"/><polygon points="149,600.87,153,591.87,149,595.87,145,591.87,149,600.87" fill="#475569" style="stroke:#475569;stroke-width:1;stroke-linejoin:miter;stroke-miterlimit:10;"/></g><?plantuml-src dPBBRi8m44Nt-OeHR5gfgAKG7fjA1Cgc8FMrx6Q8nn35sDH9Yb3LVwyV2GcHkcbMzkJEkRvZPsaY3wXn3nkCqwrMXMHp9PI6xj9zGNPMQ8fpb5j1y1q0H4epqgLsEiJ1PcAgIoNpidR7--Dx37uQ18OvRZ0h0Mr3pcWqmN-YKMjrTDnICno7uMZwHrzGP-dCHK8oxm1cu9ShF94zpeGZZnsoeOwCJKRQoSkraVPvoASjxhEcpD0mJvG4ntHDjbmw4ESZpjiEAvFdYmIygYAd3tcrJnWJT4HDW4M-ktOKznEwR4F8wRB_NJ4rDvcr4eAq0UIxHDx0dYGZGLlCaXGbf0Ips1xDy-g6C_GopUnm44dS3cEgLPQOCnwsipoHi2fdv1lSqdZqELBOybYOvz60ssrr5yG7yRXDjqbXhKmik8L7eJwBwY9ziNvHvuVNMP_UNbOU7rdxwWvxlGS_rC2FrkxheGID-TW_FaPGfh4LvnXuNxjVHBy0?></g></svg>