<svg xmlns="http://www.w3.org/2000/svg" xmlns:xlink="http://www.w3.org/1999/xlink" version="1.1" data-diagram-type="DESCRIPTION" style="width:809px;height:644px;background:#FFFFFF;" width="809px" height="644px" viewBox="0 0 809 644" zoomAndPan="magnify" preserveAspectRatio="none" contentStyleType="text/css"><?plantuml 1.2026.7beta3?><defs/><g><!--cluster Campus Course Registration System--><g class="cluster" data-qualified-name="Campus Course Registration System" id="ent0005" data-source-line="29"><rect x="108.11" y="76.55" width="687.86" height="442" fill="#F8FAFC" style="stroke:#94A3B8;stroke-width:1;" rx="2.5" ry="2.5"/><text x="308.1845" y="91.5451" fill="#0F172A" font-size="14" lengthAdjust="spacing" textLength="287.7109" font-weight="700" font-family="sans-serif">Campus Course Registration System</text></g><!--entity UC1--><g class="entity" data-qualified-name="Campus Course Registration System.UC1" id="ent0006" data-source-line="30"><ellipse cx="218.8228" cy="234.5536" rx="44.2028" ry="14.5236" fill="#DBEAFE" style="stroke:#2563EB;stroke-width:0.5;"/><text x="189.688" y="239.2021" fill="#0F172A" font-size="14" lengthAdjust="spacing" textLength="58.2695" font-family="sans-serif">Register</text></g><!--entity UC2--><g class="entity" data-qualified-name="Campus Course Registration System.UC2" id="ent0007" data-source-line="31"><ellipse cx="736.5104" cy="296.5536" rx="29.8804" ry="14.5236" fill="#DBEAFE" style="stroke:#2563EB;stroke-width:0.5;"/><text x="717.5031" y="301.2021" fill="#0F172A" font-size="14" lengthAdjust="spacing" textLength="38.0146" font-family="sans-serif">Login</text></g><!--entity UC3--><g class="entity" data-qualified-name="Campus Course Registration System.UC3" id="ent0008" data-source-line="32"><ellipse cx="218.8212" cy="159.5528" rx="41.9012" ry="25.5728" fill="#DBEAFE" style="stroke:#2563EB;stroke-width:0.5;"/><text x="193.1796" y="155.3746" fill="#0F172A" font-size="14" lengthAdjust="spacing" textLength="51.2832" font-family="sans-serif">Browse</text><text x="190.7357" y="171.6715" fill="#0F172A" font-size="14" lengthAdjust="spacing" textLength="56.1709" font-family="sans-serif">Courses</text></g><!--entity UC4--><g class="entity" data-qualified-name="Campus Course Registration System.UC4" id="ent0009" data-source-line="33"><ellipse cx="502.3008" cy="220.5477" rx="39.8608" ry="25.6077" fill="#DBEAFE" style="stroke:#2563EB;stroke-width:0.5;"/><text x="475.7295" y="217.6755" fill="#0F172A" font-size="14" lengthAdjust="spacing" textLength="53.1426" font-family="sans-serif">Enrol in</text><text x="477.8623" y="233.9724" fill="#0F172A" font-size="14" lengthAdjust="spacing" textLength="48.877" font-family="sans-serif">Course</text></g><!--entity UC5--><g class="entity" data-qualified-name="Campus Course Registration System.UC5" id="ent0010" data-source-line="34"><ellipse cx="502.2956" cy="135.5538" rx="44.5556" ry="24.0538" fill="#DBEAFE" style="stroke:#2563EB;stroke-width:0.5;"/><text x="485.5305" y="129.0863" fill="#0F172A" font-size="14" lengthAdjust="spacing" textLength="33.5303" font-family="sans-serif">View</text><text x="470.1291" y="145.3832" fill="#0F172A" font-size="14" lengthAdjust="spacing" textLength="64.333" font-family="sans-serif">Schedule</text></g><!--entity UC6--><g class="entity" data-qualified-name="Campus Course Registration System.UC6" id="ent0011" data-source-line="35"><ellipse cx="736.5053" cy="444.5451" rx="43.4553" ry="24.2951" fill="#DBEAFE" style="stroke:#2563EB;stroke-width:0.5;"/><text x="717.8158" y="438.4555" fill="#0F172A" font-size="14" lengthAdjust="spacing" textLength="37.3789" font-family="sans-serif">Make</text><text x="705.5453" y="454.7524" fill="#0F172A" font-size="14" lengthAdjust="spacing" textLength="61.9199" font-family="sans-serif">Payment</text></g><!--entity UC7--><g class="entity" data-qualified-name="Campus Course Registration System.UC7" id="ent0012" data-source-line="36"><ellipse cx="502.3003" cy="307.5501" rx="42.6203" ry="25.9901" fill="#DBEAFE" style="stroke:#2563EB;stroke-width:0.5;"/><text x="474.4952" y="303.9692" fill="#0F172A" font-size="14" lengthAdjust="spacing" textLength="55.6104" font-family="sans-serif">Manage</text><text x="474.2149" y="320.2661" fill="#0F172A" font-size="14" lengthAdjust="spacing" textLength="56.1709" font-family="sans-serif">Courses</text></g><!--entity UC8--><g class="entity" data-qualified-name="Campus Course Registration System.UC8" id="ent0013" data-source-line="37"><ellipse cx="502.2964" cy="393.5519" rx="46.0064" ry="25.4619" fill="#DBEAFE" style="stroke:#2563EB;stroke-width:0.5;"/><text x="474.4912" y="389.213" fill="#0F172A" font-size="14" lengthAdjust="spacing" textLength="55.6104" font-family="sans-serif">Manage</text><text x="471.0938" y="405.5098" fill="#0F172A" font-size="14" lengthAdjust="spacing" textLength="62.4053" font-family="sans-serif">Students</text></g><!--entity UC9--><g class="entity" data-qualified-name="Campus Course Registration System.UC9" id="ent0014" data-source-line="38"><ellipse cx="218.8232" cy="307.5496" rx="94.7132" ry="23.5996" fill="#DBEAFE" style="stroke:#2563EB;stroke-width:0.5;"/><text x="146.2666" y="307.7466" fill="#0F172A" font-size="14" lengthAdjust="spacing" textLength="145.1133" font-family="sans-serif">Manage Registration</text><text x="196.7466" y="324.0435" fill="#0F172A" font-size="14" lengthAdjust="spacing" textLength="44.1533" font-family="sans-serif">Period</text></g><!--entity UC10--><g class="entity" data-qualified-name="Campus Course Registration System.UC10" id="ent0015" data-source-line="39"><ellipse cx="502.3004" cy="478.5549" rx="65.7604" ry="24.4649" fill="#DBEAFE" style="stroke:#2563EB;stroke-width:0.5;"/><text x="454.6505" y="477.382" fill="#0F172A" font-size="14" lengthAdjust="spacing" textLength="95.2998" font-family="sans-serif">View Enrolled</text><text x="471.0978" y="493.6789" fill="#0F172A" font-size="14" lengthAdjust="spacing" textLength="62.4053" font-family="sans-serif">Students</text></g><!--entity Student--><g class="entity" data-qualified-name="Student" id="ent0001" data-source-line="24"><ellipse cx="33.5557" cy="79.4" rx="16" ry="16" fill="#F1F5F9" style="stroke:#475569;stroke-width:0.5;"/><path d="M33.5557,99.4 C37.5557,99.4 40.5557,99.4 44.5557,95.4 C52.5557,95.4 60.5557,103.4 60.5557,111.4 L60.5557,115.4 C60.5557,119.4 56.5557,123.4 52.5557,123.4 L14.5557,123.4 C10.5557,123.4 6.5557,119.4 6.5557,115.4 L6.5557,111.4 C6.5557,103.4 14.5557,95.4 22.5557,95.4 C26.5557,99.4 29.5557,99.4 33.5557,99.4" style="stroke:#475569;stroke-width:0.5;" fill="#F1F5F9"/><text x="6" y="136.8951" fill="#0F172A" font-size="14" lengthAdjust="spacing" textLength="55.1113" font-family="sans-serif">Student</text></g><!--entity Lecturer--><g class="entity" data-qualified-name="Lecturer" id="ent0002" data-source-line="25"><ellipse cx="218.8288" cy="551.4" rx="16" ry="16" fill="#F1F5F9" style="stroke:#475569;stroke-width:0.5;"/><path d="M218.8288,571.4 C222.8288,571.4 225.8288,571.4 229.8288,567.4 C237.8288,567.4 245.8288,575.4 245.8288,583.4 L245.8288,587.4 C245.8288,591.4 241.8288,595.4 237.8288,595.4 L199.8288,595.4 C195.8288,595.4 191.8288,591.4 191.8288,587.4 L191.8288,583.4 C191.8288,575.4 199.8288,567.4 207.8288,567.4 C211.8288,571.4 214.8288,571.4 218.8288,571.4" style="stroke:#475569;stroke-width:0.5;" fill="#F1F5F9"/><text x="189.53" y="608.8951" fill="#0F172A" font-size="14" lengthAdjust="spacing" textLength="58.5977" font-family="sans-serif">Lecturer</text></g><!--entity Admin--><g class="entity" data-qualified-name="Admin" id="ent0003" data-source-line="26"><ellipse cx="33.56" cy="362.4" rx="16" ry="16" fill="#F1F5F9" style="stroke:#475569;stroke-width:0.5;"/><path d="M33.56,382.4 C37.56,382.4 40.56,382.4 44.56,378.4 C52.56,378.4 60.56,386.4 60.56,394.4 L60.56,398.4 C60.56,402.4 56.56,406.4 52.56,406.4 L14.56,406.4 C10.56,406.4 6.56,402.4 6.56,398.4 L6.56,394.4 C6.56,386.4 14.56,378.4 22.56,378.4 C26.56,382.4 29.56,382.4 33.56,382.4" style="stroke:#475569;stroke-width:0.5;" fill="#F1F5F9"/><text x="11.1279" y="419.8951" fill="#0F172A" font-size="14" lengthAdjust="spacing" textLength="44.8643" font-family="sans-serif">Admin</text></g><!--entity PG--><g class="entity" data-qualified-name="PG" id="ent0004" data-source-line="27"><ellipse cx="502.3" cy="554.26" rx="16" ry="16" fill="#F1F5F9" style="stroke:#475569;stroke-width:0.5;"/><path d="M502.3,574.26 C506.3,574.26 509.3,574.26 513.3,570.26 C521.3,570.26 529.3,578.26 529.3,586.26 L529.3,590.26 C529.3,594.26 525.3,598.26 521.3,598.26 L483.3,598.26 C479.3,598.26 475.3,594.26 475.3,590.26 L475.3,586.26 C475.3,578.26 483.3,570.26 491.3,570.26 C495.3,574.26 498.3,574.26 502.3,574.26" style="stroke:#475569;stroke-width:0.5;" fill="#F1F5F9"/><text x="471.34" y="611.7551" fill="#0F172A" font-size="14" lengthAdjust="spacing" textLength="61.9199" font-family="sans-serif">Payment</text><text x="471.34" y="628.052" fill="#0F172A" font-size="14" lengthAdjust="spacing" textLength="61.8447" font-family="sans-serif">Gateway</text></g><!--link Student to UC1--><g class="link" data-entity-1="ent0001" data-entity-2="ent0006" id="lnk16" data-source-line="42" data-link-type="association"><path d="M51.25,140.48 C62.23,161.73 78.58,186.85 100.11,202.55 C122.18,218.65 151.9,226.65 175.95,230.63" style="stroke:#475569;stroke-width:1;" fill="none" id="Student-UC1"/></g><!--link Student to UC3--><g class="link" data-entity-1="ent0001" data-entity-2="ent0008" id="lnk17" data-source-line="43" data-link-type="association"><path d="M61.6,110.11 C93.26,120.13 145.86,136.78 181.17,147.95" style="stroke:#475569;stroke-width:1;" fill="none" id="Student-UC3"/></g><!--link Student to UC4--><g class="link" data-entity-1="ent0001" data-entity-2="ent0009" id="lnk18" data-source-line="44" data-link-type="association"><path d="M61.39,99 C111.92,95.05 224.15,90.42 313.54,116.55 C346.44,126.18 429.04,175.69 472.9,202.78" style="stroke:#475569;stroke-width:1;" fill="none" id="Student-UC4"/></g><!--link Student to UC5--><g class="link" data-entity-1="ent0001" data-entity-2="ent0010" id="lnk19" data-source-line="45" data-link-type="association"><path d="M61.42,72.82 C70.11,65.43 80.3,58.46 91.11,54.55 C222.96,6.92 275.02,6 406.54,54.55 C438.21,66.25 466.47,93.77 483.72,113.48" style="stroke:#475569;stroke-width:1;" fill="none" id="Student-UC5"/></g><!--link Admin to UC7--><g class="link" data-entity-1="ent0003" data-entity-2="ent0012" id="lnk20" data-source-line="46" data-link-type="association"><path d="M61.21,381.89 C110.99,376.75 221.39,364.53 313.54,348.55 C365.32,339.58 424.45,326.13 462.29,317.1" style="stroke:#475569;stroke-width:1;" fill="none" id="Admin-UC7"/></g><!--link Admin to UC8--><g class="link" data-entity-1="ent0003" data-entity-2="ent0013" id="lnk21" data-source-line="47" data-link-type="association"><path d="M61.34,399.73 C70.49,404.12 80.98,408.34 91.11,410.55 C228.06,440.52 266.9,422.98 406.54,410.55 C423.85,409.01 442.74,405.92 459.06,402.79" style="stroke:#475569;stroke-width:1;" fill="none" id="Admin-UC8"/></g><!--link Admin to UC9--><g class="link" data-entity-1="ent0003" data-entity-2="ent0014" id="lnk22" data-source-line="48" data-link-type="association"><path d="M61.48,371.85 C70.82,367.54 81.39,362.74 91.11,358.55 C115.72,347.95 143.29,336.77 166.42,327.59" style="stroke:#475569;stroke-width:1;" fill="none" id="Admin-UC9"/></g><!--link Lecturer to UC10--><g class="link" data-entity-1="ent0002" data-entity-2="ent0015" id="lnk23" data-source-line="49" data-link-type="association"><path d="M248.36,563.92 C296.37,547.72 393.81,514.83 452.74,494.94" style="stroke:#475569;stroke-width:1;" fill="none" id="Lecturer-UC10"/></g><!--link PG to UC6--><g class="link" data-entity-1="ent0004" data-entity-2="ent0011" id="lnk24" data-source-line="50" data-link-type="association"><path d="M533.58,573.73 C566.82,561.13 621.05,538.46 663.06,510.55 C682.34,497.75 701.58,479.92 715.38,466.02" style="stroke:#475569;stroke-width:1;" fill="none" id="PG-UC6"/></g><!--link UC4 to UC2--><g class="link" data-entity-1="ent0009" data-entity-2="ent0007" id="lnk25" data-source-line="52" data-link-type="dependency"><path d="M538.31,232.01 C585.83,247.56 664.7778,273.4054 706.1678,286.9454" style="stroke:#475569;stroke-width:1;stroke-dasharray:7,7;" fill="none" id="UC4-to-UC2"/><polygon points="710.92,288.5,703.6097,281.9,706.1678,286.9454,701.1224,289.5035,710.92,288.5" fill="#475569" style="stroke:#475569;stroke-width:1;stroke-linejoin:miter;stroke-miterlimit:10;"/><text x="599.06" y="248.6169" fill="#0F172A" font-size="13" lengthAdjust="spacing" textLength="63.0068" font-family="sans-serif">«include»</text></g><!--link UC4 to UC6--><g class="link" data-entity-1="ent0009" data-entity-2="ent0011" id="lnk26" data-source-line="53" data-link-type="dependency"><path d="M534.72,235.64 C546.75,242.85 559.59,252.56 568.06,264.55 C598.52,307.71 564.35,338.89 598.06,379.55 C622.91,409.53 659.9498,425.1407 690.9598,434.1807" style="stroke:#475569;stroke-width:1;stroke-dasharray:7,7;" fill="none" id="UC4-to-UC6"/><polygon points="695.76,435.58,688.2391,429.221,690.9598,434.1807,686.0002,436.9013,695.76,435.58" fill="#475569" style="stroke:#475569;stroke-width:1;stroke-linejoin:miter;stroke-miterlimit:10;"/><text x="599.06" y="375.6169" fill="#0F172A" font-size="13" lengthAdjust="spacing" textLength="63.0068" font-family="sans-serif">«include»</text></g><!--link UC5 to UC2--><g class="link" data-entity-1="ent0010" data-entity-2="ent0007" id="lnk27" data-source-line="54" data-link-type="dependency"><path d="M536.23,151.57 C569.56,168.45 621.91,196.8 663.06,227.55 C686.02,244.71 706.0592,264.7633 719.8392,279.4533" style="stroke:#475569;stroke-width:1;stroke-dasharray:7,7;" fill="none" id="UC5-to-UC2"/><polygon points="723.26,283.1,720.0199,273.7994,719.8392,279.4533,714.1853,279.2726,723.26,283.1" fill="#475569" style="stroke:#475569;stroke-width:1;stroke-linejoin:miter;stroke-miterlimit:10;"/><text x="599.06" y="182.6169" fill="#0F172A" font-size="13" lengthAdjust="spacing" textLength="63.0068" font-family="sans-serif">«include»</text></g><!--link UC7 to UC2--><g class="link" data-entity-1="ent0012" data-entity-2="ent0007" id="lnk28" data-source-line="55" data-link-type="dependency"><path d="M545.08,305.57 C591.7,303.37 660.8956,300.0859 701.5456,298.1659" style="stroke:#475569;stroke-width:1;stroke-dasharray:7,7;" fill="none" id="UC7-to-UC2"/><polygon points="706.54,297.93,697.3613,294.3591,701.5456,298.1659,697.7387,302.3502,706.54,297.93" fill="#475569" style="stroke:#475569;stroke-width:1;stroke-linejoin:miter;stroke-miterlimit:10;"/><text x="599.06" y="296.6169" fill="#0F172A" font-size="13" lengthAdjust="spacing" textLength="63.0068" font-family="sans-serif">«include»</text></g><!--link UC8 to UC2--><g class="link" data-entity-1="ent0013" data-entity-2="ent0007" id="lnk29" data-source-line="56" data-link-type="dependency"><path d="M540.23,378.89 C572.69,365.91 621.16,346.33 663.06,328.55 C680.15,321.3 694.7959,314.8419 709.1459,308.4219" style="stroke:#475569;stroke-width:1;stroke-dasharray:7,7;" fill="none" id="UC8-to-UC2"/><polygon points="713.71,306.38,703.8612,306.4042,709.1459,308.4219,707.1282,313.7067,713.71,306.38" fill="#475569" style="stroke:#475569;stroke-width:1;stroke-linejoin:miter;stroke-miterlimit:10;"/><text x="599.06" y="324.6169" fill="#0F172A" font-size="13" lengthAdjust="spacing" textLength="63.0068" font-family="sans-serif">«include»</text></g><!--link UC10 to UC2--><g class="link" data-entity-1="ent0015" data-entity-2="ent0007" id="lnk30" data-source-line="57" data-link-type="dependency"><path d="M560.99,489.86 C593.73,493.02 633.87,491.09 663.06,470.55 C666.57,468.08 711.2203,357.2213 727.8203,315.7913" style="stroke:#475569;stroke-width:1;stroke-dasharray:7,7;" fill="none" id="UC10-to-UC2"/><polygon points="729.68,311.15,722.6196,318.0166,727.8203,315.7913,730.0457,320.9921,729.68,311.15" fill="#475569" style="stroke:#475569;stroke-width:1;stroke-linejoin:miter;stroke-miterlimit:10;"/><text x="599.06" y="466.6169" fill="#0F172A" font-size="13" lengthAdjust="spacing" textLength="63.0068" font-family="sans-serif">«include»</text></g><!--link UC9 to UC7--><g class="link" data-entity-1="ent0014" data-entity-2="ent0012" id="lnk31" data-source-line="58" data-link-type="dependency"><path d="M313.94,307.55 C363.17,307.55 415.97,307.55 454.21,307.55" style="stroke:#475569;stroke-width:1;stroke-dasharray:7,7;" fill="none" id="UC9-to-UC7"/><polygon points="459.21,307.55,450.21,303.55,454.21,307.55,450.21,311.55,459.21,307.55" fill="#475569" style="stroke:#475569;stroke-width:1;stroke-linejoin:miter;stroke-miterlimit:10;"/><text x="344.54" y="303.6169" fill="#0F172A" font-size="13" lengthAdjust="spacing" textLength="61.1851" font-family="sans-serif">«extend»</text></g><?plantuml-src ZL9DRwCm4BtxLrZikLL8mbTL8MsZRIwj56tKdd9ny42jW5tPHccqsl--nXZLaA8kfvbvZpTlPbn3gR4MMBBgJMFA91IQ2OxKYV5t8ac3ZwGuLLAqd6v4BIJ-yMW_Zq4ABUHUNsh0v0nADE21hOA2AC1_4COFKobw1592XmX9GRhgCefNS3JLHy6rgotAC5aIz7VQzclTCYoZCflghfCeYhDlTRiL45xLCvxBj2HbCTNErcHrJB_tBAKuMzt_yOJw4OEzRYbm7M2Yi8i7wCcORIL8Ymt90Fwa3UCMiT5Gtf5BOoGEV4iqdCd5CdPRX3ud3pQaUM-LSTbASxpVK36b9UcU1jvVb8Oci5CCrmrwXlFniWbzx4bKpiRBPka33sOP2Wwyxw8SPULJVd4fQipuG7ASjSzvPN0-y7tn1hIj1qRaCvx9oRHnSpj2F2PmKbqvIRwYk0CCdFIQCrgNQGkI2UhesTGujXFMGA-KmqNt15mHtzpOjOxIrJXTZzC8sQltIU8dgPzaQ7WshiS2xRPz62DaLF7jRTvT3j_X-tl6Yzhqo7CFYQ-GQFQVP1P9Pv5mCGjb3aai0XyQECtpVm00?></g></svg>