<svg xmlns="http://www.w3.org/2000/svg" xmlns:xlink="http://www.w3.org/1999/xlink" version="1.1" data-diagram-type="ACTIVITY" style="width:1893px;height:542px;background:#FFFFFF;" width="1893px" height="542px" viewBox="0 0 1893 542" zoomAndPan="magnify" preserveAspectRatio="none" contentStyleType="text/css"><?plantuml 1.2026.7beta8?><defs/><g font-family="sans-serif" lengthAdjust="spacing"><rect x="20" y="17.745" width="1846.488" height="20.953" fill="none" style="stroke:none;"/><ellipse cx="366.126" cy="53.698" rx="10" ry="10" fill="#222" style="stroke:#222;stroke-width:1;"/><rect x="251.639" y="83.698" width="228.975" height="47.938" fill="#DBEAFE" style="stroke:#2563EB;stroke-width:0.5;" rx="12.5" ry="12.5"/><text x="261.639" y="104.837" fill="#0F172A" font-size="12" textLength="157.295">Select an action on a todo</text><text x="261.639" y="118.806" fill="#0F172A" font-size="12" textLength="208.975">(Create, Delete, Edit, or Complete)</text><polygon points="345.885,151.636,386.367,151.636,398.367,163.636,386.367,175.636,345.885,175.636,333.885,163.636,345.885,151.636" fill="#FEF3C7" style="stroke:#D97706;stroke-width:0.5;stroke-linejoin:miter;stroke-miterlimit:10;"/><text x="345.885" y="167.444" fill="#0F172A" font-size="11" textLength="40.482">Action?</text><rect x="26" y="211.245" width="215.639" height="33.969" fill="#DBEAFE" style="stroke:#2563EB;stroke-width:0.5;" rx="12.5" ry="12.5"/><text x="36" y="232.384" fill="#0F172A" font-size="12" textLength="195.639">Enter title &amp; optional description</text><polygon points="366.126,401.12,366.126,401.12,378.126,413.12,366.126,425.12,366.126,425.12,354.126,413.12,366.126,401.12" fill="#FEF3C7" style="stroke:#D97706;stroke-width:0.5;stroke-linejoin:miter;stroke-miterlimit:10;"/><line x1="20" y1="17.745" x2="20" y2="521.089" style="stroke:#94A3B8;stroke-width:1.5;"/><polygon points="706.312,279.183,808.642,279.183,820.642,291.183,808.642,303.183,706.312,303.183,694.312,291.183,706.312,279.183" fill="#FEF3C7" style="stroke:#D97706;stroke-width:0.5;stroke-linejoin:miter;stroke-miterlimit:10;"/><text x="706.312" y="294.991" fill="#0F172A" font-size="11" textLength="102.33">Title is not empty?</text><text x="675.304" y="288.588" fill="#0F172A" font-size="11" textLength="19.008">yes</text><text x="820.642" y="288.588" fill="#0F172A" font-size="11" textLength="13.702">no</text><rect x="490.613" y="313.183" width="292.947" height="33.969" fill="#DBEAFE" style="stroke:#2563EB;stroke-width:0.5;" rx="12.5" ry="12.5"/><text x="500.613" y="334.321" fill="#0F172A" font-size="12" textLength="272.947">Save new todo, scoped to authenticated user</text><rect x="803.561" y="313.183" width="148.613" height="33.969" fill="#DBEAFE" style="stroke:#2563EB;stroke-width:0.5;" rx="12.5" ry="12.5"/><text x="813.561" y="334.321" fill="#0F172A" font-size="12" textLength="128.613">Show validation error</text><polygon points="757.477,353.151,769.477,365.151,757.477,377.151,745.477,365.151,757.477,353.151" fill="#FEF3C7" style="stroke:#D97706;stroke-width:0.5;stroke-linejoin:miter;stroke-miterlimit:10;"/><rect x="1108.295" y="211.245" width="172.672" height="33.969" fill="#DBEAFE" style="stroke:#2563EB;stroke-width:0.5;" rx="12.5" ry="12.5"/><text x="1118.295" y="232.384" fill="#0F172A" font-size="12" textLength="152.672">Show confirmation dialog</text><polygon points="1149.595,279.183,1239.668,279.183,1251.668,291.183,1239.668,303.183,1149.595,303.183,1137.595,291.183,1149.595,279.183" fill="#FEF3C7" style="stroke:#D97706;stroke-width:0.5;stroke-linejoin:miter;stroke-miterlimit:10;"/><text x="1149.595" y="294.991" fill="#0F172A" font-size="11" textLength="90.073">User confirmed?</text><text x="1094.046" y="288.588" fill="#0F172A" font-size="11" textLength="43.549">Confirm</text><text x="1251.668" y="288.588" fill="#0F172A" font-size="11" textLength="37.265">Cancel</text><rect x="962.174" y="313.183" width="245.984" height="47.938" fill="#DBEAFE" style="stroke:#2563EB;stroke-width:0.5;" rx="12.5" ry="12.5"/><text x="972.174" y="334.321" fill="#0F172A" font-size="12" textLength="70.248">Delete todo</text><text x="972.174" y="348.29" fill="#0F172A" font-size="12" textLength="225.984">(only if owned by authenticated user)</text><rect x="1228.158" y="313.183" width="151.877" height="33.969" fill="#DBEAFE" style="stroke:#2563EB;stroke-width:0.5;" rx="12.5" ry="12.5"/><text x="1238.158" y="334.321" fill="#0F172A" font-size="12" textLength="131.877">Keep todo unchanged</text><polygon points="1194.631,367.12,1206.631,379.12,1194.631,391.12,1182.631,379.12,1194.631,367.12" fill="#FEF3C7" style="stroke:#D97706;stroke-width:0.5;stroke-linejoin:miter;stroke-miterlimit:10;"/><rect x="1390.035" y="211.245" width="302.896" height="47.938" fill="#DBEAFE" style="stroke:#2563EB;stroke-width:0.5;" rx="12.5" ry="12.5"/><text x="1400.035" y="232.384" fill="#0F172A" font-size="12" textLength="206.889">Update title &amp; optional description</text><text x="1400.035" y="246.353" fill="#0F172A" font-size="12" textLength="282.896">(same validation as Create, not repeated here)</text><rect x="1467.678" y="293.151" width="147.611" height="33.969" fill="#DBEAFE" style="stroke:#2563EB;stroke-width:0.5;" rx="12.5" ry="12.5"/><text x="1477.678" y="314.29" fill="#0F172A" font-size="12" textLength="127.611">Save changes if valid</text><rect x="1702.932" y="211.245" width="157.695" height="33.969" fill="#DBEAFE" style="stroke:#2563EB;stroke-width:0.5;" rx="12.5" ry="12.5"/><text x="1712.932" y="232.384" fill="#0F172A" font-size="12" textLength="137.695">Mark todo as complete</text><rect x="1102.492" y="445.12" width="136.256" height="33.969" fill="#DBEAFE" style="stroke:#2563EB;stroke-width:0.5;" rx="12.5" ry="12.5"/><text x="1112.492" y="466.259" fill="#0F172A" font-size="12" textLength="116.256">Show result to user</text><ellipse cx="1170.62" cy="510.089" rx="11" ry="11" fill="none" style="stroke:#222;stroke-width:1;"/><ellipse cx="1170.62" cy="510.089" rx="6" ry="6" fill="#222" style="stroke:#222;stroke-width:1;"/><line x1="484.613" y1="17.745" x2="484.613" y2="521.089" style="stroke:#94A3B8;stroke-width:1.5;"/><line x1="1864.627" y1="17.745" x2="1864.627" y2="521.089" style="stroke:#94A3B8;stroke-width:1.5;"/><line x1="366.126" y1="63.698" x2="366.126" y2="83.698" style="stroke:#475569;stroke-width:1;"/><polygon points="362.126,73.698,366.126,83.698,370.126,73.698,366.126,77.698" fill="#475569" style="stroke:#475569;stroke-width:1;stroke-linejoin:miter;stroke-miterlimit:10;"/><line x1="333.885" y1="163.636" x2="133.819" y2="163.636" style="stroke:#475569;stroke-width:1;"/><line x1="133.819" y1="163.636" x2="133.819" y2="211.245" style="stroke:#475569;stroke-width:1;"/><polygon points="129.819,201.245,133.819,211.245,137.819,201.245,133.819,205.245" fill="#475569" style="stroke:#475569;stroke-width:1;stroke-linejoin:miter;stroke-miterlimit:10;"/><text x="133.819" y="191.249" fill="#0F172A" font-size="11" textLength="36.792">Create</text><line x1="366.126" y1="131.636" x2="366.126" y2="151.636" style="stroke:#475569;stroke-width:1;"/><polygon points="362.126,141.636,366.126,151.636,370.126,141.636,366.126,145.636" fill="#475569" style="stroke:#475569;stroke-width:1;stroke-linejoin:miter;stroke-miterlimit:10;"/><line x1="694.312" y1="291.183" x2="637.087" y2="291.183" style="stroke:#475569;stroke-width:1;"/><line x1="637.087" y1="291.183" x2="637.087" y2="313.183" style="stroke:#475569;stroke-width:1;"/><polygon points="633.087,303.183,637.087,313.183,641.087,303.183,637.087,307.183" fill="#475569" style="stroke:#475569;stroke-width:1;stroke-linejoin:miter;stroke-miterlimit:10;"/><line x1="820.642" y1="291.183" x2="877.867" y2="291.183" style="stroke:#475569;stroke-width:1;"/><line x1="877.867" y1="291.183" x2="877.867" y2="313.183" style="stroke:#475569;stroke-width:1;"/><polygon points="873.867,303.183,877.867,313.183,881.867,303.183,877.867,307.183" fill="#475569" style="stroke:#475569;stroke-width:1;stroke-linejoin:miter;stroke-miterlimit:10;"/><line x1="637.087" y1="347.151" x2="637.087" y2="365.151" style="stroke:#475569;stroke-width:1;"/><line x1="637.087" y1="365.151" x2="745.477" y2="365.151" style="stroke:#475569;stroke-width:1;"/><polygon points="735.477,361.151,745.477,365.151,735.477,369.151,739.477,365.151" fill="#475569" style="stroke:#475569;stroke-width:1;stroke-linejoin:miter;stroke-miterlimit:10;"/><line x1="877.867" y1="347.151" x2="877.867" y2="365.151" style="stroke:#475569;stroke-width:1;"/><line x1="877.867" y1="365.151" x2="769.477" y2="365.151" style="stroke:#475569;stroke-width:1;"/><polygon points="779.477,361.151,769.477,365.151,779.477,369.151,775.477,365.151" fill="#475569" style="stroke:#475569;stroke-width:1;stroke-linejoin:miter;stroke-miterlimit:10;"/><line x1="1137.595" y1="291.183" x2="1085.166" y2="291.183" style="stroke:#475569;stroke-width:1;"/><line x1="1085.166" y1="291.183" x2="1085.166" y2="313.183" style="stroke:#475569;stroke-width:1;"/><polygon points="1081.166,303.183,1085.166,313.183,1089.166,303.183,1085.166,307.183" fill="#475569" style="stroke:#475569;stroke-width:1;stroke-linejoin:miter;stroke-miterlimit:10;"/><line x1="1251.668" y1="291.183" x2="1304.097" y2="291.183" style="stroke:#475569;stroke-width:1;"/><line x1="1304.097" y1="291.183" x2="1304.097" y2="313.183" style="stroke:#475569;stroke-width:1;"/><polygon points="1300.097,303.183,1304.097,313.183,1308.097,303.183,1304.097,307.183" fill="#475569" style="stroke:#475569;stroke-width:1;stroke-linejoin:miter;stroke-miterlimit:10;"/><line x1="1085.166" y1="361.12" x2="1085.166" y2="379.12" style="stroke:#475569;stroke-width:1;"/><line x1="1085.166" y1="379.12" x2="1182.631" y2="379.12" style="stroke:#475569;stroke-width:1;"/><polygon points="1172.631,375.12,1182.631,379.12,1172.631,383.12,1176.631,379.12" fill="#475569" style="stroke:#475569;stroke-width:1;stroke-linejoin:miter;stroke-miterlimit:10;"/><line x1="1304.097" y1="347.151" x2="1304.097" y2="379.12" style="stroke:#475569;stroke-width:1;"/><line x1="1304.097" y1="379.12" x2="1206.631" y2="379.12" style="stroke:#475569;stroke-width:1;"/><polygon points="1216.631,375.12,1206.631,379.12,1216.631,383.12,1212.631,379.12" fill="#475569" style="stroke:#475569;stroke-width:1;stroke-linejoin:miter;stroke-miterlimit:10;"/><line x1="1194.631" y1="245.214" x2="1194.631" y2="279.183" style="stroke:#475569;stroke-width:1;"/><polygon points="1190.631,269.183,1194.631,279.183,1198.631,269.183,1194.631,273.183" fill="#475569" style="stroke:#475569;stroke-width:1;stroke-linejoin:miter;stroke-miterlimit:10;"/><line x1="1541.483" y1="259.183" x2="1541.483" y2="293.151" style="stroke:#475569;stroke-width:1;"/><polygon points="1537.483,283.151,1541.483,293.151,1545.483,283.151,1541.483,287.151" fill="#475569" style="stroke:#475569;stroke-width:1;stroke-linejoin:miter;stroke-miterlimit:10;"/><line x1="1170.62" y1="479.089" x2="1170.62" y2="499.089" style="stroke:#475569;stroke-width:1;"/><polygon points="1166.62,489.089,1170.62,499.089,1174.62,489.089,1170.62,493.089" fill="#475569" style="stroke:#475569;stroke-width:1;stroke-linejoin:miter;stroke-miterlimit:10;"/><line x1="133.819" y1="245.214" x2="133.819" y2="262.714" style="stroke:#475569;stroke-width:1;"/><line x1="133.819" y1="262.714" x2="757.477" y2="262.714" style="stroke:#475569;stroke-width:1;"/><line x1="757.477" y1="262.714" x2="757.477" y2="279.183" style="stroke:#475569;stroke-width:1;"/><polygon points="753.477,269.183,757.477,279.183,761.477,269.183,757.477,273.183" fill="#475569" style="stroke:#475569;stroke-width:1;stroke-linejoin:miter;stroke-miterlimit:10;"/><line x1="398.367" y1="163.636" x2="1194.631" y2="163.636" style="stroke:#475569;stroke-width:1;"/><line x1="1194.631" y1="163.636" x2="1194.631" y2="211.245" style="stroke:#475569;stroke-width:1;"/><polygon points="1190.631,201.245,1194.631,211.245,1198.631,201.245,1194.631,205.245" fill="#475569" style="stroke:#475569;stroke-width:1;stroke-linejoin:miter;stroke-miterlimit:10;"/><text x="1194.631" y="191.249" fill="#0F172A" font-size="11" textLength="36.142">Delete</text><line x1="398.367" y1="163.636" x2="1541.483" y2="163.636" style="stroke:#475569;stroke-width:1;"/><line x1="1541.483" y1="163.636" x2="1541.483" y2="211.245" style="stroke:#475569;stroke-width:1;"/><polygon points="1537.483,201.245,1541.483,211.245,1545.483,201.245,1541.483,205.245" fill="#475569" style="stroke:#475569;stroke-width:1;stroke-linejoin:miter;stroke-miterlimit:10;"/><text x="1541.483" y="191.249" fill="#0F172A" font-size="11" textLength="21.302">Edit</text><line x1="398.367" y1="163.636" x2="1781.779" y2="163.636" style="stroke:#475569;stroke-width:1;"/><line x1="1781.779" y1="163.636" x2="1781.779" y2="211.245" style="stroke:#475569;stroke-width:1;"/><polygon points="1777.779,201.245,1781.779,211.245,1785.779,201.245,1781.779,205.245" fill="#475569" style="stroke:#475569;stroke-width:1;stroke-linejoin:miter;stroke-miterlimit:10;"/><text x="1781.779" y="191.249" fill="#0F172A" font-size="11" textLength="53.013">Complete</text><line x1="757.477" y1="377.151" x2="757.477" y2="413.12" style="stroke:#475569;stroke-width:1;"/><line x1="757.477" y1="413.12" x2="378.126" y2="413.12" style="stroke:#475569;stroke-width:1;"/><polygon points="388.126,409.12,378.126,413.12,388.126,417.12,384.126,413.12" fill="#475569" style="stroke:#475569;stroke-width:1;stroke-linejoin:miter;stroke-miterlimit:10;"/><line x1="1194.631" y1="391.12" x2="1194.631" y2="413.12" style="stroke:#475569;stroke-width:1;"/><line x1="1194.631" y1="413.12" x2="378.126" y2="413.12" style="stroke:#475569;stroke-width:1;"/><polygon points="388.126,409.12,378.126,413.12,388.126,417.12,384.126,413.12" fill="#475569" style="stroke:#475569;stroke-width:1;stroke-linejoin:miter;stroke-miterlimit:10;"/><line x1="1541.483" y1="327.12" x2="1541.483" y2="413.12" style="stroke:#475569;stroke-width:1;"/><line x1="1541.483" y1="413.12" x2="378.126" y2="413.12" style="stroke:#475569;stroke-width:1;"/><polygon points="388.126,409.12,378.126,413.12,388.126,417.12,384.126,413.12" fill="#475569" style="stroke:#475569;stroke-width:1;stroke-linejoin:miter;stroke-miterlimit:10;"/><line x1="1781.779" y1="245.214" x2="1781.779" y2="413.12" style="stroke:#475569;stroke-width:1;"/><line x1="1781.779" y1="413.12" x2="378.126" y2="413.12" style="stroke:#475569;stroke-width:1;"/><polygon points="388.126,409.12,378.126,413.12,388.126,417.12,384.126,413.12" fill="#475569" style="stroke:#475569;stroke-width:1;stroke-linejoin:miter;stroke-miterlimit:10;"/><line x1="366.126" y1="425.12" x2="366.126" y2="430.12" style="stroke:#475569;stroke-width:1;"/><line x1="366.126" y1="430.12" x2="1170.62" y2="430.12" style="stroke:#475569;stroke-width:1;"/><line x1="1170.62" y1="430.12" x2="1170.62" y2="445.12" style="stroke:#475569;stroke-width:1;"/><polygon points="1166.62,435.12,1170.62,445.12,1174.62,435.12,1170.62,439.12" fill="#475569" style="stroke:#475569;stroke-width:1;stroke-linejoin:miter;stroke-miterlimit:10;"/><text x="231.793" y="34.453" fill="#0F172A" font-size="18" textLength="41.027">User</text><text x="1141.059" y="34.453" fill="#0F172A" font-size="18" textLength="67.122">System</text><?plantuml-src VLBBRjim4BppAnOe45Y03qaSMtLq25edkHGzkRdriY9NDc6A54ZQXb3dtyk7b3fEK460H79sTcQMRYTrXnPRg97lDjRijLWPPInyUKuFSsy8TvIjGatmXm5yDrQG7Q3BEvpLNyFkB-aLFHljXuFhvgQyHVPwneBSouFqVMQvR2fgmeOk-M_dYndLOVSZDS2ZnDPeyO6geMR6opF0EQDObkNruhqmQyqngHemT-LylbX-slMLiTEB8tjYpgFrx7vDYhW7rCcVqH1U16-4-QqdAqleQGgF0HI_JqBwAGIwbMcxk5LKZ8LqFT_2v5kgVoWOHqSmr1P1nVsJzcJ1nuZX2amNSQX0aEDMfbKLOATrxporf_0h6vYaYO1qe8q7QZlVFnJWjwHXqfEBl85vZGS2JSSaU0gEcuv4M03k8zHB7ZG8s0V7iGMfg4oRiNeRSZkWaWAJTGf1PfmMiXbyPE_5Uu6vb1lTIDlcOY5HcKqrg8yPZ-SatfIlyixGFrEFOHkj-bXhZZf8hljFF1J_JAnGSr83qG-YBj70NlCjwWs9InjnT6aOBrrmI_-THX3ZiANpQD31U1dYF2nrb5HjoL9HNOOJfv9rkEWeyLJZlHYlpaNHJxIxx27quWEeOi53lc2CvT0jkRtoSSPvgiwRxYy0?></g></svg>