<svg xmlns="http://www.w3.org/2000/svg" xmlns:xlink="http://www.w3.org/1999/xlink" version="1.1" data-diagram-type="ACTIVITY" style="width:2106px;height:556px;background:#FFFFFF;" width="2106px" height="556px" viewBox="0 0 2106 556" zoomAndPan="magnify" preserveAspectRatio="none" contentStyleType="text/css"><?plantuml 1.2026.7beta8?><defs/><g font-family="sans-serif" lengthAdjust="spacing"><rect x="20" y="17.745" width="2059.83" height="20.953" fill="none" style="stroke:none;"/><ellipse cx="366.126" cy="53.698" rx="10" ry="10" fill="#222" style="stroke:#222;stroke-width:1;"/><rect x="251.639" y="83.698" width="228.975" height="47.938" fill="#DBEAFE" style="stroke:#2563EB;stroke-width:0.5;" rx="12.5" ry="12.5"/><text x="261.639" y="104.837" fill="#0F172A" font-size="12" textLength="157.295">Select an action on a todo</text><text x="261.639" y="118.806" fill="#0F172A" font-size="12" textLength="208.975">(Create, Edit, Complete, or Delete)</text><polygon points="345.885,151.636,386.367,151.636,398.367,163.636,386.367,175.636,345.885,175.636,333.885,163.636,345.885,151.636" fill="#FEF3C7" style="stroke:#D97706;stroke-width:0.5;stroke-linejoin:miter;stroke-miterlimit:10;"/><text x="345.885" y="167.444" fill="#0F172A" font-size="11" textLength="40.482">Action?</text><rect x="26" y="211.245" width="215.639" height="33.969" fill="#DBEAFE" style="stroke:#2563EB;stroke-width:0.5;" rx="12.5" ry="12.5"/><text x="36" y="232.384" fill="#0F172A" font-size="12" textLength="195.639">Enter title &amp; optional description</text><polygon points="539.878,279.183,637.406,279.183,649.406,291.183,637.406,303.183,539.878,303.183,527.878,291.183,539.878,279.183" fill="#FEF3C7" style="stroke:#D97706;stroke-width:0.5;stroke-linejoin:miter;stroke-miterlimit:10;"/><text x="539.878" y="294.991" fill="#0F172A" font-size="11" textLength="97.528">Confirm deletion?</text><text x="490.613" y="288.588" fill="#0F172A" font-size="11" textLength="37.265">Cancel</text><text x="649.406" y="288.588" fill="#0F172A" font-size="11" textLength="43.549">Confirm</text><polygon points="588.642,381.12,600.642,393.12,588.642,405.12,576.642,393.12,588.642,381.12" fill="#FEF3C7" style="stroke:#D97706;stroke-width:0.5;stroke-linejoin:miter;stroke-miterlimit:10;"/><polygon points="366.126,415.12,366.126,415.12,378.126,427.12,366.126,439.12,366.126,439.12,354.126,427.12,366.126,415.12" fill="#FEF3C7" style="stroke:#D97706;stroke-width:0.5;stroke-linejoin:miter;stroke-miterlimit:10;"/><line x1="20" y1="17.745" x2="20" y2="535.089" style="stroke:#94A3B8;stroke-width:1.5;"/><polygon points="919.654,279.183,1021.984,279.183,1033.984,291.183,1021.984,303.183,919.654,303.183,907.654,291.183,919.654,279.183" fill="#FEF3C7" style="stroke:#D97706;stroke-width:0.5;stroke-linejoin:miter;stroke-miterlimit:10;"/><text x="919.654" y="294.991" fill="#0F172A" font-size="11" textLength="102.33">Title is not empty?</text><text x="888.646" y="288.588" fill="#0F172A" font-size="11" textLength="19.008">yes</text><text x="1033.984" y="288.588" fill="#0F172A" font-size="11" textLength="13.702">no</text><rect x="703.955" y="313.183" width="292.947" height="33.969" fill="#DBEAFE" style="stroke:#2563EB;stroke-width:0.5;" rx="12.5" ry="12.5"/><text x="713.955" y="334.321" fill="#0F172A" font-size="12" textLength="272.947">Save new todo, scoped to authenticated user</text><rect x="1016.902" y="313.183" width="148.613" height="33.969" fill="#DBEAFE" style="stroke:#2563EB;stroke-width:0.5;" rx="12.5" ry="12.5"/><text x="1026.902" y="334.321" fill="#0F172A" font-size="12" textLength="128.613">Show validation error</text><polygon points="970.819,353.151,982.819,365.151,970.819,377.151,958.819,365.151,970.819,353.151" fill="#FEF3C7" style="stroke:#D97706;stroke-width:0.5;stroke-linejoin:miter;stroke-miterlimit:10;"/><rect x="1175.516" y="211.245" width="302.896" height="47.938" fill="#DBEAFE" style="stroke:#2563EB;stroke-width:0.5;" rx="12.5" ry="12.5"/><text x="1185.516" y="232.384" fill="#0F172A" font-size="12" textLength="206.889">Update title &amp; optional description</text><text x="1185.516" y="246.353" fill="#0F172A" font-size="12" textLength="282.896">(same validation as Create, not repeated here)</text><rect x="1253.158" y="293.151" width="147.611" height="33.969" fill="#DBEAFE" style="stroke:#2563EB;stroke-width:0.5;" rx="12.5" ry="12.5"/><text x="1263.158" y="314.29" fill="#0F172A" font-size="12" textLength="127.611">Save changes if valid</text><rect x="1488.412" y="211.245" width="157.695" height="33.969" fill="#DBEAFE" style="stroke:#2563EB;stroke-width:0.5;" rx="12.5" ry="12.5"/><text x="1498.412" y="232.384" fill="#0F172A" font-size="12" textLength="137.695">Mark todo as complete</text><rect x="1755.175" y="211.245" width="172.672" height="33.969" fill="#DBEAFE" style="stroke:#2563EB;stroke-width:0.5;" rx="12.5" ry="12.5"/><text x="1765.175" y="232.384" fill="#0F172A" font-size="12" textLength="152.672">Show confirmation dialog</text><rect x="1656.107" y="323.183" width="151.877" height="33.969" fill="#DBEAFE" style="stroke:#2563EB;stroke-width:0.5;" rx="12.5" ry="12.5"/><text x="1666.107" y="344.321" fill="#0F172A" font-size="12" textLength="131.877">Keep todo unchanged</text><rect x="1827.984" y="323.183" width="245.984" height="47.938" fill="#DBEAFE" style="stroke:#2563EB;stroke-width:0.5;" rx="12.5" ry="12.5"/><text x="1837.984" y="344.321" fill="#0F172A" font-size="12" textLength="70.248">Delete todo</text><text x="1837.984" y="358.29" fill="#0F172A" font-size="12" textLength="225.984">(only if owned by authenticated user)</text><rect x="1325.834" y="459.12" width="136.256" height="33.969" fill="#DBEAFE" style="stroke:#2563EB;stroke-width:0.5;" rx="12.5" ry="12.5"/><text x="1335.834" y="480.259" fill="#0F172A" font-size="12" textLength="116.256">Show result to user</text><ellipse cx="1393.962" cy="524.089" rx="11" ry="11" fill="none" style="stroke:#222;stroke-width:1;"/><ellipse cx="1393.962" cy="524.089" rx="6" ry="6" fill="#222" style="stroke:#222;stroke-width:1;"/><line x1="697.955" y1="17.745" x2="697.955" y2="535.089" style="stroke:#94A3B8;stroke-width:1.5;"/><line x1="2077.969" y1="17.745" x2="2077.969" y2="535.089" style="stroke:#94A3B8;stroke-width:1.5;"/><line x1="366.126" y1="63.698" x2="366.126" y2="83.698" style="stroke:#475569;stroke-width:1;"/><polygon points="362.126,73.698,366.126,83.698,370.126,73.698,366.126,77.698" fill="#475569" style="stroke:#475569;stroke-width:1;stroke-linejoin:miter;stroke-miterlimit:10;"/><line x1="333.885" y1="163.636" x2="133.819" y2="163.636" style="stroke:#475569;stroke-width:1;"/><line x1="133.819" y1="163.636" x2="133.819" y2="211.245" style="stroke:#475569;stroke-width:1;"/><polygon points="129.819,201.245,133.819,211.245,137.819,201.245,133.819,205.245" fill="#475569" style="stroke:#475569;stroke-width:1;stroke-linejoin:miter;stroke-miterlimit:10;"/><text x="133.819" y="191.249" fill="#0F172A" font-size="11" textLength="36.792">Create</text><line x1="366.126" y1="131.636" x2="366.126" y2="151.636" style="stroke:#475569;stroke-width:1;"/><polygon points="362.126,141.636,366.126,151.636,370.126,141.636,366.126,145.636" fill="#475569" style="stroke:#475569;stroke-width:1;stroke-linejoin:miter;stroke-miterlimit:10;"/><line x1="907.654" y1="291.183" x2="850.429" y2="291.183" style="stroke:#475569;stroke-width:1;"/><line x1="850.429" y1="291.183" x2="850.429" y2="313.183" style="stroke:#475569;stroke-width:1;"/><polygon points="846.429,303.183,850.429,313.183,854.429,303.183,850.429,307.183" fill="#475569" style="stroke:#475569;stroke-width:1;stroke-linejoin:miter;stroke-miterlimit:10;"/><line x1="1033.984" y1="291.183" x2="1091.209" y2="291.183" style="stroke:#475569;stroke-width:1;"/><line x1="1091.209" y1="291.183" x2="1091.209" y2="313.183" style="stroke:#475569;stroke-width:1;"/><polygon points="1087.209,303.183,1091.209,313.183,1095.209,303.183,1091.209,307.183" fill="#475569" style="stroke:#475569;stroke-width:1;stroke-linejoin:miter;stroke-miterlimit:10;"/><line x1="850.429" y1="347.151" x2="850.429" y2="365.151" style="stroke:#475569;stroke-width:1;"/><line x1="850.429" y1="365.151" x2="958.819" y2="365.151" style="stroke:#475569;stroke-width:1;"/><polygon points="948.819,361.151,958.819,365.151,948.819,369.151,952.819,365.151" fill="#475569" style="stroke:#475569;stroke-width:1;stroke-linejoin:miter;stroke-miterlimit:10;"/><line x1="1091.209" y1="347.151" x2="1091.209" y2="365.151" style="stroke:#475569;stroke-width:1;"/><line x1="1091.209" y1="365.151" x2="982.819" y2="365.151" style="stroke:#475569;stroke-width:1;"/><polygon points="992.819,361.151,982.819,365.151,992.819,369.151,988.819,365.151" fill="#475569" style="stroke:#475569;stroke-width:1;stroke-linejoin:miter;stroke-miterlimit:10;"/><line x1="1326.964" y1="259.183" x2="1326.964" y2="293.151" style="stroke:#475569;stroke-width:1;"/><polygon points="1322.964,283.151,1326.964,293.151,1330.964,283.151,1326.964,287.151" fill="#475569" style="stroke:#475569;stroke-width:1;stroke-linejoin:miter;stroke-miterlimit:10;"/><line x1="1393.962" y1="493.089" x2="1393.962" y2="513.089" style="stroke:#475569;stroke-width:1;"/><polygon points="1389.962,503.089,1393.962,513.089,1397.962,503.089,1393.962,507.089" fill="#475569" style="stroke:#475569;stroke-width:1;stroke-linejoin:miter;stroke-miterlimit:10;"/><line x1="133.819" y1="245.214" x2="133.819" y2="262.714" style="stroke:#475569;stroke-width:1;"/><line x1="133.819" y1="262.714" x2="970.819" y2="262.714" style="stroke:#475569;stroke-width:1;"/><line x1="970.819" y1="262.714" x2="970.819" y2="279.183" style="stroke:#475569;stroke-width:1;"/><polygon points="966.819,269.183,970.819,279.183,974.819,269.183,970.819,273.183" fill="#475569" style="stroke:#475569;stroke-width:1;stroke-linejoin:miter;stroke-miterlimit:10;"/><line x1="527.878" y1="291.183" x2="515.878" y2="291.183" style="stroke:#475569;stroke-width:1;"/><line x1="515.878" y1="291.183" x2="515.878" y2="309.183" style="stroke:#475569;stroke-width:1;"/><line x1="515.878" y1="309.183" x2="1732.046" y2="309.183" style="stroke:#475569;stroke-width:1;"/><line x1="1732.046" y1="309.183" x2="1732.046" y2="323.183" style="stroke:#475569;stroke-width:1;"/><polygon points="1728.046,313.183,1732.046,323.183,1736.046,313.183,1732.046,317.183" fill="#475569" style="stroke:#475569;stroke-width:1;stroke-linejoin:miter;stroke-miterlimit:10;"/><line x1="649.406" y1="291.183" x2="1950.977" y2="291.183" style="stroke:#475569;stroke-width:1;"/><line x1="1950.977" y1="291.183" x2="1950.977" y2="323.183" style="stroke:#475569;stroke-width:1;"/><polygon points="1946.977,313.183,1950.977,323.183,1954.977,313.183,1950.977,317.183" fill="#475569" style="stroke:#475569;stroke-width:1;stroke-linejoin:miter;stroke-miterlimit:10;"/><line x1="1732.046" y1="357.151" x2="1732.046" y2="375.12" style="stroke:#475569;stroke-width:1;"/><line x1="1732.046" y1="375.12" x2="558.642" y2="375.12" style="stroke:#475569;stroke-width:1;"/><line x1="558.642" y1="375.12" x2="558.642" y2="393.12" style="stroke:#475569;stroke-width:1;"/><line x1="558.642" y1="393.12" x2="576.642" y2="393.12" style="stroke:#475569;stroke-width:1;"/><polygon points="566.642,389.12,576.642,393.12,566.642,397.12,570.642,393.12" fill="#475569" style="stroke:#475569;stroke-width:1;stroke-linejoin:miter;stroke-miterlimit:10;"/><line x1="1950.977" y1="371.12" x2="1950.977" y2="393.12" style="stroke:#475569;stroke-width:1;"/><line x1="1950.977" y1="393.12" x2="600.642" y2="393.12" style="stroke:#475569;stroke-width:1;"/><polygon points="610.642,389.12,600.642,393.12,610.642,397.12,606.642,393.12" fill="#475569" style="stroke:#475569;stroke-width:1;stroke-linejoin:miter;stroke-miterlimit:10;"/><line x1="1841.511" y1="245.214" x2="1841.511" y2="262.714" style="stroke:#475569;stroke-width:1;"/><line x1="1841.511" y1="262.714" x2="588.642" y2="262.714" style="stroke:#475569;stroke-width:1;"/><line x1="588.642" y1="262.714" x2="588.642" y2="279.183" style="stroke:#475569;stroke-width:1;"/><polygon points="584.642,269.183,588.642,279.183,592.642,269.183,588.642,273.183" fill="#475569" style="stroke:#475569;stroke-width:1;stroke-linejoin:miter;stroke-miterlimit:10;"/><line x1="398.367" y1="163.636" x2="1326.964" y2="163.636" style="stroke:#475569;stroke-width:1;"/><line x1="1326.964" y1="163.636" x2="1326.964" y2="211.245" style="stroke:#475569;stroke-width:1;"/><polygon points="1322.964,201.245,1326.964,211.245,1330.964,201.245,1326.964,205.245" fill="#475569" style="stroke:#475569;stroke-width:1;stroke-linejoin:miter;stroke-miterlimit:10;"/><text x="1326.964" y="191.249" fill="#0F172A" font-size="11" textLength="21.302">Edit</text><line x1="398.367" y1="163.636" x2="1567.26" y2="163.636" style="stroke:#475569;stroke-width:1;"/><line x1="1567.26" y1="163.636" x2="1567.26" y2="211.245" style="stroke:#475569;stroke-width:1;"/><polygon points="1563.26,201.245,1567.26,211.245,1571.26,201.245,1567.26,205.245" fill="#475569" style="stroke:#475569;stroke-width:1;stroke-linejoin:miter;stroke-miterlimit:10;"/><text x="1567.26" y="191.249" fill="#0F172A" font-size="11" textLength="53.013">Complete</text><line x1="398.367" y1="163.636" x2="1841.511" y2="163.636" style="stroke:#475569;stroke-width:1;"/><line x1="1841.511" y1="163.636" x2="1841.511" y2="211.245" style="stroke:#475569;stroke-width:1;"/><polygon points="1837.511,201.245,1841.511,211.245,1845.511,201.245,1841.511,205.245" fill="#475569" style="stroke:#475569;stroke-width:1;stroke-linejoin:miter;stroke-miterlimit:10;"/><text x="1841.511" y="191.249" fill="#0F172A" font-size="11" textLength="36.142">Delete</text><line x1="970.819" y1="377.151" x2="970.819" y2="427.12" style="stroke:#475569;stroke-width:1;"/><line x1="970.819" y1="427.12" x2="378.126" y2="427.12" style="stroke:#475569;stroke-width:1;"/><polygon points="388.126,423.12,378.126,427.12,388.126,431.12,384.126,427.12" fill="#475569" style="stroke:#475569;stroke-width:1;stroke-linejoin:miter;stroke-miterlimit:10;"/><line x1="1326.964" y1="327.12" x2="1326.964" y2="427.12" style="stroke:#475569;stroke-width:1;"/><line x1="1326.964" y1="427.12" x2="378.126" y2="427.12" style="stroke:#475569;stroke-width:1;"/><polygon points="388.126,423.12,378.126,427.12,388.126,431.12,384.126,427.12" fill="#475569" style="stroke:#475569;stroke-width:1;stroke-linejoin:miter;stroke-miterlimit:10;"/><line x1="1567.26" y1="245.214" x2="1567.26" y2="427.12" style="stroke:#475569;stroke-width:1;"/><line x1="1567.26" y1="427.12" x2="378.126" y2="427.12" style="stroke:#475569;stroke-width:1;"/><polygon points="388.126,423.12,378.126,427.12,388.126,431.12,384.126,427.12" fill="#475569" style="stroke:#475569;stroke-width:1;stroke-linejoin:miter;stroke-miterlimit:10;"/><line x1="366.126" y1="439.12" x2="366.126" y2="444.12" style="stroke:#475569;stroke-width:1;"/><line x1="366.126" y1="444.12" x2="1393.962" y2="444.12" style="stroke:#475569;stroke-width:1;"/><line x1="1393.962" y1="444.12" x2="1393.962" y2="459.12" style="stroke:#475569;stroke-width:1;"/><polygon points="1389.962,449.12,1393.962,459.12,1397.962,449.12,1393.962,453.12" fill="#475569" style="stroke:#475569;stroke-width:1;stroke-linejoin:miter;stroke-miterlimit:10;"/><text x="338.464" y="34.453" fill="#0F172A" font-size="18" textLength="41.027">User</text><text x="1354.401" y="34.453" fill="#0F172A" font-size="18" textLength="67.122">System</text><?plantuml-src VLB1RXen4BtxAqQgLB4IXpG4AE4GjIIvL3tHt7ePx5cmyDehsu1M9V_UiRqqXA2kLYlR--RDUsySjjgswB615ShjshkTLGjdd8TFp_aHuHyY77HZq1By4G3VdLVaU-Zi3aUhhtpwIqT3pyx6_iTD_MLwY-BrZ0Lbr7iTky9osLIj26kwvByTJqQqujEFr02F6XjdrGUgckgHd9u1pXdLR3gzcRmNvhqxP5Kzvcuw7azcLxk-2d5y2UIF8aJqKTmloP2CW3RxSnRuHOXEkTzsiF24aORmf7GSCdlJ6afx9doajApcGd2wKMvWy2tNFrH2OY3eQojMSVza8tc8AMBu3AvDE3IWA4YlysxEiEEo2v6Q8ozr3OCy4T01h8j0JHkxXmhYXYmCEWg9bvcNk2UmTCY2Xn2aQqdn1d2Ne55Brg1WnuvJ2p99cNMdwWtdjaUZ5MRhn44Md5Mwxdqaxzd5Iyim-gyDZYnWG-US6E2KOZBYgQKiQKC-fVVETh4ZDsZN5588cMT-2hIFlxee-eb-c_sdNh87dOhwCLtsISQbixNsJP6fD1gtpdhAzIX3M1GCUsIQFDr-10kqaap9yOoPkNyGjKNEpXOhwYtwdkzQNL5wkddEcYufS0VBOQswAmEjtYR5tt8BXIZUF8MTYUaYbD67wDg_?></g></svg>