<svg xmlns="http://www.w3.org/2000/svg" xmlns:xlink="http://www.w3.org/1999/xlink" version="1.1" data-diagram-type="ACTIVITY" style="width:496px;height:316px;background:#FFFFFF;" width="496px" height="316px" viewBox="0 0 496 316" zoomAndPan="magnify" preserveAspectRatio="none" contentStyleType="text/css"><?plantuml 1.2026.7beta8?><defs/><g font-family="sans-serif" lengthAdjust="spacing"><rect x="20" y="17.745" width="449.728" height="20.953" fill="none" style="stroke:none;"/><ellipse cx="115.184" cy="53.698" rx="10" ry="10" fill="#222" style="stroke:#222;stroke-width:1;"/><rect x="26" y="83.698" width="178.367" height="47.938" fill="#DBEAFE" style="stroke:#2563EB;stroke-width:0.5;" rx="12.5" ry="12.5"/><text x="36" y="104.837" fill="#0F172A" font-size="12" textLength="68.748">Select filter</text><text x="36" y="118.806" fill="#0F172A" font-size="12" textLength="158.367">(All, Active, or Completed)</text><line x1="20" y1="17.745" x2="20" y2="295.542" style="stroke:#94A3B8;stroke-width:1.5;"/><rect x="214.367" y="151.636" width="249.5" height="47.938" fill="#DBEAFE" style="stroke:#2563EB;stroke-width:0.5;" rx="12.5" ry="12.5"/><text x="224.367" y="172.774" fill="#0F172A" font-size="12" textLength="136.025">Query todos scoped to</text><text x="224.367" y="186.743" fill="#0F172A" font-size="12" textLength="229.5">authenticated user matching the filter</text><rect x="272.917" y="219.573" width="132.4" height="33.969" fill="#DBEAFE" style="stroke:#2563EB;stroke-width:0.5;" rx="12.5" ry="12.5"/><text x="282.917" y="240.712" fill="#0F172A" font-size="12" textLength="112.4">Display filtered list</text><ellipse cx="339.117" cy="284.542" rx="11" ry="11" fill="none" style="stroke:#222;stroke-width:1;"/><ellipse cx="339.117" cy="284.542" rx="6" ry="6" fill="#222" style="stroke:#222;stroke-width:1;"/><line x1="208.367" y1="17.745" x2="208.367" y2="295.542" style="stroke:#94A3B8;stroke-width:1.5;"/><line x1="467.867" y1="17.745" x2="467.867" y2="295.542" style="stroke:#94A3B8;stroke-width:1.5;"/><line x1="115.184" y1="63.698" x2="115.184" y2="83.698" style="stroke:#475569;stroke-width:1;"/><polygon points="111.184,73.698,115.184,83.698,119.184,73.698,115.184,77.698" fill="#475569" style="stroke:#475569;stroke-width:1;stroke-linejoin:miter;stroke-miterlimit:10;"/><line x1="339.117" y1="199.573" x2="339.117" y2="219.573" style="stroke:#475569;stroke-width:1;"/><polygon points="335.117,209.573,339.117,219.573,343.117,209.573,339.117,213.573" fill="#475569" style="stroke:#475569;stroke-width:1;stroke-linejoin:miter;stroke-miterlimit:10;"/><line x1="339.117" y1="253.542" x2="339.117" y2="273.542" style="stroke:#475569;stroke-width:1;"/><polygon points="335.117,263.542,339.117,273.542,343.117,263.542,339.117,267.542" fill="#475569" style="stroke:#475569;stroke-width:1;stroke-linejoin:miter;stroke-miterlimit:10;"/><line x1="115.184" y1="131.636" x2="115.184" y2="136.636" style="stroke:#475569;stroke-width:1;"/><line x1="115.184" y1="136.636" x2="339.117" y2="136.636" style="stroke:#475569;stroke-width:1;"/><line x1="339.117" y1="136.636" x2="339.117" y2="151.636" style="stroke:#475569;stroke-width:1;"/><polygon points="335.117,141.636,339.117,151.636,343.117,141.636,339.117,145.636" fill="#475569" style="stroke:#475569;stroke-width:1;stroke-linejoin:miter;stroke-miterlimit:10;"/><text x="93.67" y="34.453" fill="#0F172A" font-size="18" textLength="41.027">User</text><text x="304.556" y="34.453" fill="#0F172A" font-size="18" textLength="67.122">System</text><?plantuml-src XOv1Ry8m38Nl-HMMTjaa3XjG6Es9CN57R3SkRk92H9fKZZjKqVttPQoQ9gG9t_pytlSSZzOto5X3YVguvz1wimekCDojBwFYhoEUREtG4vmLm4jWGpnO5rESbCz9VRFYQ1sy38V7wca-HlNvXu9Qx8ULxeToNMfAmegk-UDiDg4ogJVGpE5quGwUwJpBPej_Sgf_ZyIzYe8iAj-I8orGMIV4Et-_T6u4o-zdQGGfk0fruqZ8F1GfkksYKDshVDCITo31X0XHXuPCMdOUMpcG5win9Q1DHL2Zw8FrUqYNeQPG-QkDZSDk49BNsIX5UYeqNm00?></g></svg>