<svg xmlns="http://www.w3.org/2000/svg" xmlns:xlink="http://www.w3.org/1999/xlink" version="1.1" data-diagram-type="ACTIVITY" style="width:214px;height:750px;background:#FFFFFF;" width="214px" height="750px" viewBox="0 0 214 750" zoomAndPan="magnify" preserveAspectRatio="none" contentStyleType="text/css"><?plantuml 1.2026.7beta8?><defs/><g font-family="sans-serif" lengthAdjust="spacing"><ellipse cx="105.362" cy="25" rx="10" ry="10" fill="#222" style="stroke:#222;stroke-width:1;"/><rect x="35.837" y="55" width="139.051" height="47.938" fill="#DBEAFE" style="stroke:#2563EB;stroke-width:0.5;" rx="12.5" ry="12.5"/><text x="45.837" y="76.139" fill="#0F172A" font-size="12" textLength="119.051">Identifikasi Masalah</text><text x="45.837" y="90.107" fill="#0F172A" font-size="12" textLength="41.391">(BAB I)</text><rect x="45.61" y="122.938" width="119.504" height="61.906" fill="#DBEAFE" style="stroke:#2563EB;stroke-width:0.5;" rx="12.5" ry="12.5"/><text x="55.61" y="144.076" fill="#0F172A" font-size="12" textLength="99.504">Studi Literatur &amp;</text><text x="55.61" y="158.045" fill="#0F172A" font-size="12" textLength="69.27">Dasar Teori</text><text x="55.61" y="172.014" fill="#0F172A" font-size="12" textLength="44.93">(BAB II)</text><rect x="27.057" y="204.844" width="156.611" height="61.906" fill="#DBEAFE" style="stroke:#2563EB;stroke-width:0.5;" rx="12.5" ry="12.5"/><text x="37.057" y="225.982" fill="#0F172A" font-size="12" textLength="114.838">Analisis Kebutuhan</text><text x="37.057" y="239.951" fill="#0F172A" font-size="12" textLength="136.611">&amp; Perancangan Sistem</text><text x="37.057" y="253.92" fill="#0F172A" font-size="12" textLength="49.6">(BAB IV)</text><rect x="27.106" y="286.75" width="156.512" height="47.938" fill="#DBEAFE" style="stroke:#2563EB;stroke-width:0.5;" rx="12.5" ry="12.5"/><text x="37.106" y="307.889" fill="#0F172A" font-size="12" textLength="136.512">Implementasi Varian A</text><text x="37.106" y="321.857" fill="#0F172A" font-size="12" textLength="91.43">(Fat Controller)</text><rect x="27.095" y="354.688" width="156.535" height="47.938" fill="#DBEAFE" style="stroke:#2563EB;stroke-width:0.5;" rx="12.5" ry="12.5"/><text x="37.095" y="375.826" fill="#0F172A" font-size="12" textLength="136.535">Implementasi Varian B</text><text x="37.095" y="389.795" fill="#0F172A" font-size="12" textLength="94.893">(Action Pattern)</text><rect x="16" y="422.625" width="178.725" height="47.938" fill="#DBEAFE" style="stroke:#2563EB;stroke-width:0.5;" rx="12.5" ry="12.5"/><text x="26" y="443.764" fill="#0F172A" font-size="12" textLength="158.725">Pengujian Blackbox &amp; UAT</text><text x="26" y="457.732" fill="#0F172A" font-size="12" textLength="87.768">(kedua varian)</text><rect x="28.671" y="490.563" width="153.383" height="61.906" fill="#DBEAFE" style="stroke:#2563EB;stroke-width:0.5;" rx="12.5" ry="12.5"/><text x="38.671" y="511.701" fill="#0F172A" font-size="12" textLength="113.367">Pengukuran Metrik</text><text x="38.671" y="525.67" fill="#0F172A" font-size="12" textLength="133.383">(complexity, coupling,</text><text x="38.671" y="539.639" fill="#0F172A" font-size="12" textLength="92.531">LOC, coverage)</text><rect x="25.308" y="572.469" width="160.109" height="47.938" fill="#DBEAFE" style="stroke:#2563EB;stroke-width:0.5;" rx="12.5" ry="12.5"/><text x="35.308" y="593.607" fill="#0F172A" font-size="12" textLength="140.109">Analisis &amp; Pembahasan</text><text x="35.308" y="607.576" fill="#0F172A" font-size="12" textLength="82.711">Hasil (BAB VI)</text><rect x="28.557" y="640.406" width="153.611" height="47.938" fill="#DBEAFE" style="stroke:#2563EB;stroke-width:0.5;" rx="12.5" ry="12.5"/><text x="38.557" y="661.545" fill="#0F172A" font-size="12" textLength="133.611">Penarikan Kesimpulan</text><text x="38.557" y="675.514" fill="#0F172A" font-size="12" textLength="53.139">(BAB VII)</text><ellipse cx="105.362" cy="719.344" rx="11" ry="11" fill="none" style="stroke:#222;stroke-width:1;"/><ellipse cx="105.362" cy="719.344" rx="6" ry="6" fill="#222" style="stroke:#222;stroke-width:1;"/><line x1="105.362" y1="35" x2="105.362" y2="55" style="stroke:#475569;stroke-width:1;"/><polygon points="101.362,45,105.362,55,109.362,45,105.362,49" fill="#475569" style="stroke:#475569;stroke-width:1;stroke-linejoin:miter;stroke-miterlimit:10;"/><line x1="105.362" y1="102.938" x2="105.362" y2="122.938" style="stroke:#475569;stroke-width:1;"/><polygon points="101.362,112.938,105.362,122.938,109.362,112.938,105.362,116.938" fill="#475569" style="stroke:#475569;stroke-width:1;stroke-linejoin:miter;stroke-miterlimit:10;"/><line x1="105.362" y1="184.844" x2="105.362" y2="204.844" style="stroke:#475569;stroke-width:1;"/><polygon points="101.362,194.844,105.362,204.844,109.362,194.844,105.362,198.844" fill="#475569" style="stroke:#475569;stroke-width:1;stroke-linejoin:miter;stroke-miterlimit:10;"/><line x1="105.362" y1="266.75" x2="105.362" y2="286.75" style="stroke:#475569;stroke-width:1;"/><polygon points="101.362,276.75,105.362,286.75,109.362,276.75,105.362,280.75" fill="#475569" style="stroke:#475569;stroke-width:1;stroke-linejoin:miter;stroke-miterlimit:10;"/><line x1="105.362" y1="334.688" x2="105.362" y2="354.688" style="stroke:#475569;stroke-width:1;"/><polygon points="101.362,344.688,105.362,354.688,109.362,344.688,105.362,348.688" fill="#475569" style="stroke:#475569;stroke-width:1;stroke-linejoin:miter;stroke-miterlimit:10;"/><line x1="105.362" y1="402.625" x2="105.362" y2="422.625" style="stroke:#475569;stroke-width:1;"/><polygon points="101.362,412.625,105.362,422.625,109.362,412.625,105.362,416.625" fill="#475569" style="stroke:#475569;stroke-width:1;stroke-linejoin:miter;stroke-miterlimit:10;"/><line x1="105.362" y1="470.563" x2="105.362" y2="490.563" style="stroke:#475569;stroke-width:1;"/><polygon points="101.362,480.563,105.362,490.563,109.362,480.563,105.362,484.563" fill="#475569" style="stroke:#475569;stroke-width:1;stroke-linejoin:miter;stroke-miterlimit:10;"/><line x1="105.362" y1="552.469" x2="105.362" y2="572.469" style="stroke:#475569;stroke-width:1;"/><polygon points="101.362,562.469,105.362,572.469,109.362,562.469,105.362,566.469" fill="#475569" style="stroke:#475569;stroke-width:1;stroke-linejoin:miter;stroke-miterlimit:10;"/><line x1="105.362" y1="620.406" x2="105.362" y2="640.406" style="stroke:#475569;stroke-width:1;"/><polygon points="101.362,630.406,105.362,640.406,109.362,630.406,105.362,634.406" fill="#475569" style="stroke:#475569;stroke-width:1;stroke-linejoin:miter;stroke-miterlimit:10;"/><line x1="105.362" y1="688.344" x2="105.362" y2="708.344" style="stroke:#475569;stroke-width:1;"/><polygon points="101.362,698.344,105.362,708.344,109.362,698.344,105.362,702.344" fill="#475569" style="stroke:#475569;stroke-width:1;stroke-linejoin:miter;stroke-miterlimit:10;"/><?plantuml-src TP5FJzj04CNl_XGZLOfQYGE59XRqv82YHe0Q2SWfbx4zTgPUprhx9wMg-EwTjGnAMzZRplvctdixlcCPq64F9LPTwsoK-ieQw-33QZoPVoMm2dpWy0j-Pm3BV_6w96melLXNavkgP_F5EPLQNLa9K-sq-PoVeTQk6NihzN-Z6chEg_m8E9vON-JvwI9xFZRcdFqvkfgOB_bylhXuK_Kvotn05xBBTKqIkE4EFSCTUZIutyd7PR64zQUlsULzY3N3BGTo6AA3sKwkbNBmGDRn2pcYXQ1Xpnvkg8mXxb5sCeEDDag5qgB0FVj0_KlJDZMj-y5GhnwI_XOTArOeiSAWEIGuQmovzyYbaeKkn0fiCAX7IUI6f8q_ndUZlrhQ9vZ1O_6WS4TrH3YCtQze5zKYt55mt2bJsQJqf3i-WSh6mR2q9pkv_NwLxWVDqz9VULF8liIz_ej6_gR-38mHj-j9G_KwbRWXp_qGJS8c814-sE4F?></g></svg>